ffmpeg version git-2020-08-16-5df9724 Copyright (c) 2000-2020 the FFmpeg developers
  built with gcc 10.2.1 (GCC) 20200805
  configuration: --enable-gpl --enable-version3 --enable-sdl2 --enable-fontconfig --enable-gnutls --enable-iconv --enable-libass --enable-libdav1d --enable-libbluray --enable-libfreetype --enable-libmp3lame --enable-libopencore-amrnb --enable-libopencore-amrwb --enable-libopenjpeg --enable-libopus --enable-libshine --enable-libsnappy --enable-libsoxr --enable-libsrt --enable-libtheora --enable-libtwolame --enable-libvpx --enable-libwavpack --enable-libwebp --enable-libx264 --enable-libx265 --enable-libxml2 --enable-libzimg --enable-lzma --enable-zlib --enable-gmp --enable-libvidstab --enable-libvmaf --enable-libvorbis --enable-libvo-amrwbenc --enable-libmysofa --enable-libspeex --enable-libxvid --enable-libaom --enable-libgsm --enable-librav1e --enable-libsvtav1 --disable-w32threads --enable-libmfx --enable-ffnvcodec --enable-cuda-llvm --enable-cuvid --enable-d3d11va --enable-nvenc --enable-nvdec --enable-dxva2 --enable-avisynth --enable-libopenmpt --enable-amf
  libavutil      56. 58.100 / 56. 58.100
  libavcodec     58.100.100 / 58.100.100
  libavformat    58. 51.100 / 58. 51.100
  libavdevice    58. 11.101 / 58. 11.101
  libavfilter     7. 87.100 /  7. 87.100
  libswscale      5.  8.100 /  5.  8.100
  libswresample   3.  8.100 /  3.  8.100
  libpostproc    55.  8.100 / 55.  8.100
[hls @ 0000020dede5ea00] Skip ('#EXT-X-VERSION:3')
[hls @ 0000020dede5ea00] Skip ('#EXT-X-ALLOW-CACHE:YES')
[hls @ 0000020dede5ea00] Opening 'http://83.149.84.164:25461/hlsr/TBEOVUNZG1xBAAZXA1JTAFVXCggFCAcGBVJRBQZRBVUEUl4FUQRcVAEVGRERRxRdV1tnWFQaCw0JGEFBQARHaF5XRA4SAg1SVgQXH0BHD1VTFAIBHBpBXFQWWRYLVg0GBRFKFlVJTQMRWVRfPVcDTl9VXRMKVkRZXBhBW10+UVJaUghQEgsbVkEbF1oRQ0QCWENUXRwaU1xERgJAVkMPFQUHUAMSHRsFDEJbRxBKRAIUYmoTHBpUTURRDUdaDlsVDRELB0UJG0pBXkZsEFYVTERTWVxVShMPEgRBGBEMVE9oUAlaXlRaEgpYW0BACUQJFBoaXF9WWEFfRjxEWgUXDRULUQMGABsb/server35/server3535/89/7d10b9a52bdf94e036698bd4629bc77f/89_1972.ts' for reading
[hls @ 0000020dede5ea00] Opening 'http://83.149.84.164:25461/hlsr/TBEOVUNZG1xBAAZXA1JTAFVXCggFCAcGBVJRBQZRBVUEUl4FUQRcVAEVGRERRxRdV1tnWFQaCw0JGEFBQARHaF5XRA4SAg1SVgQXH0BHD1VTFAIBHBpBXFQWWRYLVg0GBRFKFlVJTQMRWVRfPVcDTl9VXRMKVkRZXBhBW10+UVJaUghQEgsbVkEbF1oRQ0QCWENUXRwaU1xERgJAVkMPFQUHUAMSHRsFDEJbRxBKRAIUYmoTHBpUTURRDUdaDlsVDRELB0UJG0pBXkZsEFYVTERTWVxVShMPEgRBGBEMVE9oUAlaXlRaEgpYW0BACUQJFBoaXF9WWEFfRjxEWgUXDRULUQMGABsb/server35/server3535/89/a315b432d9573e653a97f4f7d6cdb01e/89_1973.ts' for reading
Input #0, hls, from 'http://hd.vizontele.eu:80/live/server35/server3535/89.m3u8':
  Duration: N/A, start: 19720.188089, bitrate: N/A
  Program 0 
    Metadata:
      variant_bitrate : 0
    Stream #0:0: Video: h264 (High) ([27][0][0][0] / 0x001B), yuv420p, 1280x720 [SAR 1:1 DAR 16:9], 25 fps, 25 tbr, 90k tbn, 50 tbc
    Metadata:
      variant_bitrate : 0
    Stream #0:1: Audio: aac (LC) ([15][0][0][0] / 0x000F), 44100 Hz, stereo, fltp
    Metadata:
      variant_bitrate : 0
Multiple -c, -codec, -acodec, -vcodec, -scodec or -dcodec options specified for stream 1, only the last option '-c:a aac' will be used.
Stream mapping:
  Stream #0:0 -> #0:0 (h264 (native) -> h264 (libx264))
  Stream #0:1 -> #0:1 (aac (native) -> aac (native))
Press [q] to stop, [?] for help
[libx264 @ 0000020dee90fb80] using SAR=1/1
[libx264 @ 0000020dee90fb80] using cpu capabilities: MMX2 SSE2Fast SSSE3 SSE4.2 AVX FMA3 BMI2 AVX2
[libx264 @ 0000020dee90fb80] profile High, level 4.1, 4:2:0, 8-bit
[libx264 @ 0000020dee90fb80] 264 - core 161 - H.264/MPEG-4 AVC codec - Copyleft 2003-2020 - http://www.videolan.org/x264.html - options: cabac=1 ref=1 deblock=1:0:0 analyse=0x3:0x113 me=hex subme=2 psy=1 psy_rd=1.00:0.00 mixed_ref=0 me_range=16 chroma_me=1 trellis=0 8x8dct=1 cqm=0 deadzone=21,11 fast_pskip=1 chroma_qp_offset=0 threads=12 lookahead_threads=4 sliced_threads=0 nr=0 decimate=1 interlaced=0 bluray_compat=0 constrained_intra=0 bframes=3 b_pyramid=2 b_adapt=1 b_bias=0 direct=1 weightb=1 open_gop=0 weightp=1 keyint=250 keyint_min=25 scenecut=40 intra_refresh=0 rc_lookahead=10 rc=crf mbtree=1 crf=23.0 qcomp=0.60 qpmin=0 qpmax=69 qpstep=4 vbv_maxrate=800 vbv_bufsize=1600 crf_max=0.0 nal_hrd=none filler=0 ip_ratio=1.40 aq=1:1.00
Output #0, hls, to 'C:\xampp\htdocs\iptv\m3u/cc384c68ad503482fb24e6d1e3b512ae.m3u8':
  Metadata:
    encoder         : Lavf58.51.100
    Stream #0:0: Video: h264 (libx264), yuv420p, 1920x1080 [SAR 1:1 DAR 16:9], q=-1--1, 25 fps, 90k tbn, 25 tbc
    Metadata:
      variant_bitrate : 0
      encoder         : Lavc58.100.100 libx264
    Side data:
      cpb: bitrate max/min/avg: 800000/0/0 buffer size: 1600000 vbv_delay: N/A
    Stream #0:1: Audio: aac (LC), 44100 Hz, stereo, fltp, 128 kb/s
    Metadata:
      variant_bitrate : 0
      encoder         : Lavc58.100.100 aac
frame=   40 fps=0.0 q=33.0 size=N/A time=00:00:01.78 bitrate=N/A dup=2 drop=0 speed=3.42x    frame=   80 fps= 78 q=35.0 size=N/A time=00:00:03.39 bitrate=N/A dup=2 drop=0 speed= 3.3x    frame=  116 fps= 76 q=36.0 size=N/A time=00:00:04.76 bitrate=N/A dup=2 drop=0 speed=3.11x    frame=  156 fps= 77 q=37.0 size=N/A time=00:00:06.57 bitrate=N/A dup=2 drop=0 speed=3.24x    frame=  199 fps= 79 q=35.0 size=N/A time=00:00:08.15 bitrate=N/A dup=2 drop=0 speed=3.22x    [http @ 0000020dede78640] Opening 'http://83.149.84.164:25461/hlsr/TBEOVUNZG1xBAAZXA1JTAFVXCggFCAcGBVJRBQZRBVUEUl4FUQRcVAEVGRERRxRdV1tnWFQaCw0JGEFBQARHaF5XRA4SAg1SVgQXH0BHD1VTFAIBHBpBXFQWWRYLVg0GBRFKFlVJTQMRWVRfPVcDTl9VXRMKVkRZXBhBW10+UVJaUghQEgsbVkEbF1oRQ0QCWENUXRwaU1xERgJAVkMPFQUHUAMSHRsFDEJbRxBKRAIUYmoTHBpUTURRDUdaDlsVDRELB0UJG0pBXkZsEFYVTERTWVxVShMPEgRBGBEMVE9oUAlaXlRaEgpYW0BACUQJFBoaXF9WWEFfRjxEWgUXDRULUQMGABsb/server35/server3535/89/90ca7ad2dc5f7c5f3ae5678287f2de79/89_1974.ts' for reading
frame=  241 fps= 77 q=34.0 size=N/A time=00:00:09.96 bitrate=N/A dup=2 drop=0 speed= 3.2x    frame=  259 fps= 71 q=36.0 size=N/A time=00:00:10.61 bitrate=N/A dup=2 drop=0 speed=2.89x    frame=  275 fps= 65 q=38.0 size=N/A time=00:00:11.26 bitrate=N/A dup=2 drop=0 speed=2.65x    [hls @ 0000020dee770740] Opening 'C:\xampp\htdocs\iptv\m3u/cc384c68ad503482fb24e6d1e3b512ae0.ts' for writing
[hls @ 0000020dee770740] Opening 'C:\xampp\htdocs\iptv\m3u/cc384c68ad503482fb24e6d1e3b512ae.m3u8.tmp' for writing
frame=  301 fps= 63 q=35.0 size=N/A time=00:00:12.26 bitrate=N/A dup=2 drop=0 speed=2.57x    frame=  340 fps= 64 q=36.0 size=N/A time=00:00:13.88 bitrate=N/A dup=2 drop=0 speed=2.63x    frame=  377 fps= 65 q=37.0 size=N/A time=00:00:15.23 bitrate=N/A dup=2 drop=0 speed=2.64x    frame=  415 fps= 66 q=37.0 size=N/A time=00:00:16.90 bitrate=N/A dup=2 drop=0 speed=2.69x    frame=  462 fps= 68 q=36.0 size=N/A time=00:00:18.66 bitrate=N/A dup=2 drop=0 speed=2.75x    frame=  503 fps= 69 q=36.0 size=N/A time=00:00:20.41 bitrate=N/A dup=2 drop=0 speed= 2.8x    [hls @ 0000020dee770740] Opening 'C:\xampp\htdocs\iptv\m3u/cc384c68ad503482fb24e6d1e3b512ae1.ts' for writing
[hls @ 0000020dee770740] Opening 'C:\xampp\htdocs\iptv\m3u/cc384c68ad503482fb24e6d1e3b512ae.m3u8.tmp' for writing
frame=  543 fps= 70 q=35.0 size=N/A time=00:00:21.89 bitrate=N/A dup=2 drop=0 speed=2.81x    frame=  580 fps= 70 q=44.0 size=N/A time=00:00:23.35 bitrate=N/A dup=2 drop=0 speed=2.82x    frame=  617 fps= 70 q=44.0 size=N/A time=00:00:24.96 bitrate=N/A dup=2 drop=0 speed=2.84x    [hls @ 0000020dee770740] Opening 'C:\xampp\htdocs\iptv\m3u/cc384c68ad503482fb24e6d1e3b512ae2.ts' for writing
[hls @ 0000020dee770740] Opening 'C:\xampp\htdocs\iptv\m3u/cc384c68ad503482fb24e6d1e3b512ae.m3u8.tmp' for writing
frame=  660 fps= 71 q=36.0 size=N/A time=00:00:26.63 bitrate=N/A dup=2 drop=0 speed=2.86x    frame=  694 fps= 71 q=47.0 size=N/A time=00:00:27.95 bitrate=N/A dup=2 drop=0 speed=2.85x    [hls @ 0000020dee770740] Opening 'C:\xampp\htdocs\iptv\m3u/cc384c68ad503482fb24e6d1e3b512ae3.ts' for writing
[hls @ 0000020dee770740] Opening 'C:\xampp\htdocs\iptv\m3u/cc384c68ad503482fb24e6d1e3b512ae.m3u8.tmp' for writing
frame=  739 fps= 72 q=40.0 size=N/A time=00:00:29.72 bitrate=N/A dup=2 drop=0 speed=2.88x    [hls @ 0000020dede5ea00] Opening 'http://83.149.84.164:25461/live/server35/server3535/89.m3u8?token=TBEOVUNZG1xBAAZXA1JTAFVXCggFCAcGBVJRBQZRBVUEUl4FUQRcVAEVGRERRxRdV1tnWFQaCw0JGEFBQARHaF5XRA4SAg1SVgQXH0BHD1VTFAIBHBpBXFQWWRYLVg0GBRFKFlVJTQMRWVRfPVcDTl9VXRMKVkRZXBhBW10+UVJaUghQEgsbVkEbF1oRQ0QCWENUXRwaU1xERgJAVkMPFQUHUAMSHRsFDEJbRxBKRAIUYmoTHBpUTURRDUdaDlsVDRELB0UJG0pBXkZsEFYVTERTWVxVShMPEgRBGBEMVE9oUAlaXlRaEgpYW0BACUQJFBoaXF9WWEFfRjxEWgUXDRULUQMGABsb' for reading
[hls @ 0000020dede5ea00] Skip ('#EXT-X-VERSION:3')
[hls @ 0000020dede5ea00] Skip ('#EXT-X-ALLOW-CACHE:YES')
[http @ 0000020dede78640] Opening 'http://83.149.84.164:25461/hlsr/TBEOVUNZG1xBAAZXA1JTAFVXCggFCAcGBVJRBQZRBVUEUl4FUQRcVAEVGRERRxRdV1tnWFQaCw0JGEFBQARHaF5XRA4SAg1SVgQXH0BHD1VTFAIBHBpBXFQWWRYLVg0GBRFKFlVJTQMRWVRfPVcDTl9VXRMKVkRZXBhBW10+UVJaUghQEgsbVkEbF1oRQ0QCWENUXRwaU1xERgJAVkMPFQUHUAMSHRsFDEJbRxBKRAIUYmoTHBpUTURRDUdaDlsVDRELB0UJG0pBXkZsEFYVTERTWVxVShMPEgRBGBEMVE9oUAlaXlRaEgpYW0BACUQJFBoaXF9WWEFfRjxEWgUXDRULUQMGABsb/server35/server3535/89/9efd907940f76123e714ccf312dbe4de/89_1975.ts' for reading
frame=  741 fps= 68 q=41.0 size=N/A time=00:00:29.95 bitrate=N/A dup=2 drop=0 speed=2.76x    [hls @ 0000020dee770740] Opening 'C:\xampp\htdocs\iptv\m3u/cc384c68ad503482fb24e6d1e3b512ae4.ts' for writing
[hls @ 0000020dee770740] Opening 'C:\xampp\htdocs\iptv\m3u/cc384c68ad503482fb24e6d1e3b512ae.m3u8.tmp' for writing
frame=  766 fps= 68 q=49.0 size=N/A time=00:00:30.88 bitrate=N/A dup=2 drop=0 speed=2.72x    frame=  799 fps= 67 q=44.0 size=N/A time=00:00:32.11 bitrate=N/A dup=2 drop=0 speed=2.71x    frame=  833 fps= 67 q=45.0 size=N/A time=00:00:33.48 bitrate=N/A dup=2 drop=0 speed=2.71x    [hls @ 0000020dee770740] Opening 'C:\xampp\htdocs\iptv\m3u/cc384c68ad503482fb24e6d1e3b512ae5.ts' for writing
[hls @ 0000020dee770740] Opening 'C:\xampp\htdocs\iptv\m3u/cc384c68ad503482fb24e6d1e3b512ae.m3u8.tmp' for writing
frame=  867 fps= 67 q=47.0 size=N/A time=00:00:34.92 bitrate=N/A dup=2 drop=0 speed=2.72x    frame=  905 fps= 68 q=42.0 size=N/A time=00:00:36.33 bitrate=N/A dup=2 drop=0 speed=2.72x    [hls @ 0000020dee770740] Opening 'C:\xampp\htdocs\iptv\m3u/cc384c68ad503482fb24e6d1e3b512ae6.ts' for writing
[hls @ 0000020dee770740] Opening 'C:\xampp\htdocs\iptv\m3u/cc384c68ad503482fb24e6d1e3b512ae.m3u8.tmp' for writing
frame=  939 fps= 68 q=43.0 size=N/A time=00:00:37.73 bitrate=N/A dup=2 drop=0 speed=2.72x    [hls @ 0000020dee770740] Opening 'C:\xampp\htdocs\iptv\m3u/cc384c68ad503482fb24e6d1e3b512ae7.ts' for writing
[hls @ 0000020dee770740] Opening 'C:\xampp\htdocs\iptv\m3u/cc384c68ad503482fb24e6d1e3b512ae.m3u8.tmp' for writing
frame=  972 fps= 68 q=46.0 size=N/A time=00:00:39.05 bitrate=N/A dup=2 drop=0 speed=2.71x    [http @ 0000020d82d61800] Opening 'http://83.149.84.164:25461/live/server35/server3535/89.m3u8?token=TBEOVUNZG1xBAAZXA1JTAFVXCggFCAcGBVJRBQZRBVUEUl4FUQRcVAEVGRERRxRdV1tnWFQaCw0JGEFBQARHaF5XRA4SAg1SVgQXH0BHD1VTFAIBHBpBXFQWWRYLVg0GBRFKFlVJTQMRWVRfPVcDTl9VXRMKVkRZXBhBW10+UVJaUghQEgsbVkEbF1oRQ0QCWENUXRwaU1xERgJAVkMPFQUHUAMSHRsFDEJbRxBKRAIUYmoTHBpUTURRDUdaDlsVDRELB0UJG0pBXkZsEFYVTERTWVxVShMPEgRBGBEMVE9oUAlaXlRaEgpYW0BACUQJFBoaXF9WWEFfRjxEWgUXDRULUQMGABsb' for reading
[hls @ 0000020dede5ea00] Opening 'http://83.149.84.164:25461/live/server35/server3535/89.m3u8?token=TBEOVUNZG1xBAAZXA1JTAFVXCggFCAcGBVJRBQZRBVUEUl4FUQRcVAEVGRERRxRdV1tnWFQaCw0JGEFBQARHaF5XRA4SAg1SVgQXH0BHD1VTFAIBHBpBXFQWWRYLVg0GBRFKFlVJTQMRWVRfPVcDTl9VXRMKVkRZXBhBW10+UVJaUghQEgsbVkEbF1oRQ0QCWENUXRwaU1xERgJAVkMPFQUHUAMSHRsFDEJbRxBKRAIUYmoTHBpUTURRDUdaDlsVDRELB0UJG0pBXkZsEFYVTERTWVxVShMPEgRBGBEMVE9oUAlaXlRaEgpYW0BACUQJFBoaXF9WWEFfRjxEWgUXDRULUQMGABsb' for reading
[hls @ 0000020dede5ea00] Skip ('#EXT-X-VERSION:3')
[hls @ 0000020dede5ea00] Skip ('#EXT-X-ALLOW-CACHE:YES')
[http @ 0000020dede78640] Opening 'http://83.149.84.164:25461/hlsr/TBEOVUNZG1xBAAZXA1JTAFVXCggFCAcGBVJRBQZRBVUEUl4FUQRcVAEVGRERRxRdV1tnWFQaCw0JGEFBQARHaF5XRA4SAg1SVgQXH0BHD1VTFAIBHBpBXFQWWRYLVg0GBRFKFlVJTQMRWVRfPVcDTl9VXRMKVkRZXBhBW10+UVJaUghQEgsbVkEbF1oRQ0QCWENUXRwaU1xERgJAVkMPFQUHUAMSHRsFDEJbRxBKRAIUYmoTHBpUTURRDUdaDlsVDRELB0UJG0pBXkZsEFYVTERTWVxVShMPEgRBGBEMVE9oUAlaXlRaEgpYW0BACUQJFBoaXF9WWEFfRjxEWgUXDRULUQMGABsb/server35/server3535/89/c226fdb1b30258024118bc340eab79c2/89_1976.ts' for reading
frame=  991 fps= 47 q=39.0 size=N/A time=00:00:39.96 bitrate=N/A dup=2 drop=0 speed=1.88x    frame= 1010 fps= 47 q=40.0 size=N/A time=00:00:40.63 bitrate=N/A dup=2 drop=0 speed=1.87x    frame= 1039 fps= 47 q=45.0 size=N/A time=00:00:41.79 bitrate=N/A dup=2 drop=0 speed=1.88x    [hls @ 0000020dee770740] Opening 'C:\xampp\htdocs\iptv\m3u/cc384c68ad503482fb24e6d1e3b512ae0.ts' for writing
[hls @ 0000020dee770740] Opening 'C:\xampp\htdocs\iptv\m3u/cc384c68ad503482fb24e6d1e3b512ae.m3u8.tmp' for writing
frame= 1078 fps= 47 q=43.0 size=N/A time=00:00:43.37 bitrate=N/A dup=2 drop=0 speed= 1.9x    frame= 1115 fps= 48 q=45.0 size=N/A time=00:00:44.76 bitrate=N/A dup=2 drop=0 speed=1.92x    frame= 1150 fps= 48 q=43.0 size=N/A time=00:00:46.34 bitrate=N/A dup=2 drop=0 speed=1.95x    [hls @ 0000020dee770740] Opening 'C:\xampp\htdocs\iptv\m3u/cc384c68ad503482fb24e6d1e3b512ae1.ts' for writing
[hls @ 0000020dee770740] Opening 'C:\xampp\htdocs\iptv\m3u/cc384c68ad503482fb24e6d1e3b512ae.m3u8.tmp' for writing
frame= 1186 fps= 49 q=50.0 size=N/A time=00:00:47.67 bitrate=N/A dup=2 drop=0 speed=1.96x    frame= 1223 fps= 49 q=52.0 size=N/A time=00:00:49.13 bitrate=N/A dup=2 drop=0 speed=1.98x    [http @ 0000020d82d61800] Opening 'http://83.149.84.164:25461/live/server35/server3535/89.m3u8?token=TBEOVUNZG1xBAAZXA1JTAFVXCggFCAcGBVJRBQZRBVUEUl4FUQRcVAEVGRERRxRdV1tnWFQaCw0JGEFBQARHaF5XRA4SAg1SVgQXH0BHD1VTFAIBHBpBXFQWWRYLVg0GBRFKFlVJTQMRWVRfPVcDTl9VXRMKVkRZXBhBW10+UVJaUghQEgsbVkEbF1oRQ0QCWENUXRwaU1xERgJAVkMPFQUHUAMSHRsFDEJbRxBKRAIUYmoTHBpUTURRDUdaDlsVDRELB0UJG0pBXkZsEFYVTERTWVxVShMPEgRBGBEMVE9oUAlaXlRaEgpYW0BACUQJFBoaXF9WWEFfRjxEWgUXDRULUQMGABsb' for reading
[hls @ 0000020dede5ea00] Opening 'http://83.149.84.164:25461/live/server35/server3535/89.m3u8?token=TBEOVUNZG1xBAAZXA1JTAFVXCggFCAcGBVJRBQZRBVUEUl4FUQRcVAEVGRERRxRdV1tnWFQaCw0JGEFBQARHaF5XRA4SAg1SVgQXH0BHD1VTFAIBHBpBXFQWWRYLVg0GBRFKFlVJTQMRWVRfPVcDTl9VXRMKVkRZXBhBW10+UVJaUghQEgsbVkEbF1oRQ0QCWENUXRwaU1xERgJAVkMPFQUHUAMSHRsFDEJbRxBKRAIUYmoTHBpUTURRDUdaDlsVDRELB0UJG0pBXkZsEFYVTERTWVxVShMPEgRBGBEMVE9oUAlaXlRaEgpYW0BACUQJFBoaXF9WWEFfRjxEWgUXDRULUQMGABsb' for reading
[hls @ 0000020dede5ea00] Skip ('#EXT-X-VERSION:3')
[hls @ 0000020dede5ea00] Skip ('#EXT-X-ALLOW-CACHE:YES')
[http @ 0000020dede78640] Opening 'http://83.149.84.164:25461/hlsr/TBEOVUNZG1xBAAZXA1JTAFVXCggFCAcGBVJRBQZRBVUEUl4FUQRcVAEVGRERRxRdV1tnWFQaCw0JGEFBQARHaF5XRA4SAg1SVgQXH0BHD1VTFAIBHBpBXFQWWRYLVg0GBRFKFlVJTQMRWVRfPVcDTl9VXRMKVkRZXBhBW10+UVJaUghQEgsbVkEbF1oRQ0QCWENUXRwaU1xERgJAVkMPFQUHUAMSHRsFDEJbRxBKRAIUYmoTHBpUTURRDUdaDlsVDRELB0UJG0pBXkZsEFYVTERTWVxVShMPEgRBGBEMVE9oUAlaXlRaEgpYW0BACUQJFBoaXF9WWEFfRjxEWgUXDRULUQMGABsb/server35/server3535/89/cd4ef9be943e82daf244f2067bbcda6b/89_1977.ts' for reading
frame= 1241 fps= 39 q=49.0 size=N/A time=00:00:49.94 bitrate=N/A dup=2 drop=0 speed=1.59x    frame= 1275 fps= 40 q=39.0 size=N/A time=00:00:51.24 bitrate=N/A dup=2 drop=0 speed= 1.6x    frame= 1326 fps= 41 q=28.0 size=N/A time=00:00:53.33 bitrate=N/A dup=2 drop=0 speed=1.64x    frame= 1379 fps= 42 q=28.0 size=N/A time=00:00:55.33 bitrate=N/A dup=2 drop=0 speed=1.68x    frame= 1425 fps= 43 q=36.0 size=N/A time=00:00:57.30 bitrate=N/A dup=2 drop=0 speed=1.71x    [hls @ 0000020dee770740] Opening 'C:\xampp\htdocs\iptv\m3u/cc384c68ad503482fb24e6d1e3b512ae2.ts' for writing
[hls @ 0000020dee770740] Opening 'C:\xampp\htdocs\iptv\m3u/cc384c68ad503482fb24e6d1e3b512ae.m3u8.tmp' for writing
[hls @ 0000020dee770740] Opening 'C:\xampp\htdocs\iptv\m3u/cc384c68ad503482fb24e6d1e3b512ae3.ts' for writing
[hls @ 0000020dee770740] Opening 'C:\xampp\htdocs\iptv\m3u/cc384c68ad503482fb24e6d1e3b512ae.m3u8.tmp' for writing
frame= 1460 fps= 43 q=56.0 size=N/A time=00:00:58.67 bitrate=N/A dup=2 drop=0 speed=1.73x    [http @ 0000020d82d61800] Opening 'http://83.149.84.164:25461/live/server35/server3535/89.m3u8?token=TBEOVUNZG1xBAAZXA1JTAFVXCggFCAcGBVJRBQZRBVUEUl4FUQRcVAEVGRERRxRdV1tnWFQaCw0JGEFBQARHaF5XRA4SAg1SVgQXH0BHD1VTFAIBHBpBXFQWWRYLVg0GBRFKFlVJTQMRWVRfPVcDTl9VXRMKVkRZXBhBW10+UVJaUghQEgsbVkEbF1oRQ0QCWENUXRwaU1xERgJAVkMPFQUHUAMSHRsFDEJbRxBKRAIUYmoTHBpUTURRDUdaDlsVDRELB0UJG0pBXkZsEFYVTERTWVxVShMPEgRBGBEMVE9oUAlaXlRaEgpYW0BACUQJFBoaXF9WWEFfRjxEWgUXDRULUQMGABsb' for reading
[hls @ 0000020dede5ea00] Opening 'http://83.149.84.164:25461/live/server35/server3535/89.m3u8?token=TBEOVUNZG1xBAAZXA1JTAFVXCggFCAcGBVJRBQZRBVUEUl4FUQRcVAEVGRERRxRdV1tnWFQaCw0JGEFBQARHaF5XRA4SAg1SVgQXH0BHD1VTFAIBHBpBXFQWWRYLVg0GBRFKFlVJTQMRWVRfPVcDTl9VXRMKVkRZXBhBW10+UVJaUghQEgsbVkEbF1oRQ0QCWENUXRwaU1xERgJAVkMPFQUHUAMSHRsFDEJbRxBKRAIUYmoTHBpUTURRDUdaDlsVDRELB0UJG0pBXkZsEFYVTERTWVxVShMPEgRBGBEMVE9oUAlaXlRaEgpYW0BACUQJFBoaXF9WWEFfRjxEWgUXDRULUQMGABsb' for reading
[hls @ 0000020dede5ea00] Skip ('#EXT-X-VERSION:3')
[hls @ 0000020dede5ea00] Skip ('#EXT-X-ALLOW-CACHE:YES')
[http @ 0000020dede78640] Opening 'http://83.149.84.164:25461/hlsr/TBEOVUNZG1xBAAZXA1JTAFVXCggFCAcGBVJRBQZRBVUEUl4FUQRcVAEVGRERRxRdV1tnWFQaCw0JGEFBQARHaF5XRA4SAg1SVgQXH0BHD1VTFAIBHBpBXFQWWRYLVg0GBRFKFlVJTQMRWVRfPVcDTl9VXRMKVkRZXBhBW10+UVJaUghQEgsbVkEbF1oRQ0QCWENUXRwaU1xERgJAVkMPFQUHUAMSHRsFDEJbRxBKRAIUYmoTHBpUTURRDUdaDlsVDRELB0UJG0pBXkZsEFYVTERTWVxVShMPEgRBGBEMVE9oUAlaXlRaEgpYW0BACUQJFBoaXF9WWEFfRjxEWgUXDRULUQMGABsb/server35/server3535/89/ecbdcb626d284c010c3265550274a863/89_1978.ts' for reading
frame= 1491 fps= 36 q=41.0 size=N/A time=00:00:59.95 bitrate=N/A dup=2 drop=0 speed=1.43x    frame= 1523 fps= 36 q=41.0 size=N/A time=00:01:01.09 bitrate=N/A dup=2 drop=0 speed=1.44x    frame= 1560 fps= 36 q=57.0 size=N/A time=00:01:02.67 bitrate=N/A dup=2 drop=0 speed=1.46x    [hls @ 0000020dee770740] Opening 'C:\xampp\htdocs\iptv\m3u/cc384c68ad503482fb24e6d1e3b512ae4.ts' for writing
[hls @ 0000020dee770740] Opening 'C:\xampp\htdocs\iptv\m3u/cc384c68ad503482fb24e6d1e3b512ae.m3u8.tmp' for writing
frame= 1599 fps= 37 q=58.0 size=N/A time=00:01:04.06 bitrate=N/A dup=2 drop=0 speed=1.48x    frame= 1646 fps= 38 q=41.0 size=N/A time=00:01:06.01 bitrate=N/A dup=2 drop=0 speed= 1.5x    frame= 1687 fps= 38 q=46.0 size=N/A time=00:01:07.63 bitrate=N/A dup=2 drop=0 speed=1.52x    [hls @ 0000020dee770740] Opening 'C:\xampp\htdocs\iptv\m3u/cc384c68ad503482fb24e6d1e3b512ae5.ts' for writing
[hls @ 0000020dee770740] Opening 'C:\xampp\htdocs\iptv\m3u/cc384c68ad503482fb24e6d1e3b512ae.m3u8.tmp' for writing
frame= 1727 fps= 38 q=44.0 size=N/A time=00:01:09.38 bitrate=N/A dup=2 drop=0 speed=1.55x    [http @ 0000020d82d61800] Opening 'http://83.149.84.164:25461/live/server35/server3535/89.m3u8?token=TBEOVUNZG1xBAAZXA1JTAFVXCggFCAcGBVJRBQZRBVUEUl4FUQRcVAEVGRERRxRdV1tnWFQaCw0JGEFBQARHaF5XRA4SAg1SVgQXH0BHD1VTFAIBHBpBXFQWWRYLVg0GBRFKFlVJTQMRWVRfPVcDTl9VXRMKVkRZXBhBW10+UVJaUghQEgsbVkEbF1oRQ0QCWENUXRwaU1xERgJAVkMPFQUHUAMSHRsFDEJbRxBKRAIUYmoTHBpUTURRDUdaDlsVDRELB0UJG0pBXkZsEFYVTERTWVxVShMPEgRBGBEMVE9oUAlaXlRaEgpYW0BACUQJFBoaXF9WWEFfRjxEWgUXDRULUQMGABsb' for reading
[hls @ 0000020dede5ea00] Opening 'http://83.149.84.164:25461/live/server35/server3535/89.m3u8?token=TBEOVUNZG1xBAAZXA1JTAFVXCggFCAcGBVJRBQZRBVUEUl4FUQRcVAEVGRERRxRdV1tnWFQaCw0JGEFBQARHaF5XRA4SAg1SVgQXH0BHD1VTFAIBHBpBXFQWWRYLVg0GBRFKFlVJTQMRWVRfPVcDTl9VXRMKVkRZXBhBW10+UVJaUghQEgsbVkEbF1oRQ0QCWENUXRwaU1xERgJAVkMPFQUHUAMSHRsFDEJbRxBKRAIUYmoTHBpUTURRDUdaDlsVDRELB0UJG0pBXkZsEFYVTERTWVxVShMPEgRBGBEMVE9oUAlaXlRaEgpYW0BACUQJFBoaXF9WWEFfRjxEWgUXDRULUQMGABsb' for reading
[hls @ 0000020dede5ea00] Skip ('#EXT-X-VERSION:3')
[hls @ 0000020dede5ea00] Skip ('#EXT-X-ALLOW-CACHE:YES')
[http @ 0000020dede78640] Opening 'http://83.149.84.164:25461/hlsr/TBEOVUNZG1xBAAZXA1JTAFVXCggFCAcGBVJRBQZRBVUEUl4FUQRcVAEVGRERRxRdV1tnWFQaCw0JGEFBQARHaF5XRA4SAg1SVgQXH0BHD1VTFAIBHBpBXFQWWRYLVg0GBRFKFlVJTQMRWVRfPVcDTl9VXRMKVkRZXBhBW10+UVJaUghQEgsbVkEbF1oRQ0QCWENUXRwaU1xERgJAVkMPFQUHUAMSHRsFDEJbRxBKRAIUYmoTHBpUTURRDUdaDlsVDRELB0UJG0pBXkZsEFYVTERTWVxVShMPEgRBGBEMVE9oUAlaXlRaEgpYW0BACUQJFBoaXF9WWEFfRjxEWgUXDRULUQMGABsb/server35/server3535/89/b668b8b0cdcd0204089c2956ce303820/89_1979.ts' for reading
frame= 1741 fps= 33 q=47.0 size=N/A time=00:01:09.96 bitrate=N/A dup=2 drop=0 speed=1.34x    frame= 1765 fps= 34 q=50.0 size=N/A time=00:01:10.84 bitrate=N/A dup=2 drop=0 speed=1.35x    frame= 1804 fps= 34 q=50.0 size=N/A time=00:01:12.46 bitrate=N/A dup=2 drop=0 speed=1.36x    [hls @ 0000020dee770740] Opening 'C:\xampp\htdocs\iptv\m3u/cc384c68ad503482fb24e6d1e3b512ae6.ts' for writing
[hls @ 0000020dee770740] Opening 'C:\xampp\htdocs\iptv\m3u/cc384c68ad503482fb24e6d1e3b512ae.m3u8.tmp' for writing
frame= 1849 fps= 34 q=40.0 size=N/A time=00:01:14.18 bitrate=N/A dup=2 drop=0 speed=1.38x    frame= 1890 fps= 35 q=40.0 size=N/A time=00:01:15.83 bitrate=N/A dup=2 drop=0 speed= 1.4x    frame= 1932 fps= 35 q=48.0 size=N/A time=00:01:17.53 bitrate=N/A dup=2 drop=0 speed=1.42x    [hls @ 0000020dee770740] Opening 'C:\xampp\htdocs\iptv\m3u/cc384c68ad503482fb24e6d1e3b512ae7.ts' for writing
[hls @ 0000020dee770740] Opening 'C:\xampp\htdocs\iptv\m3u/cc384c68ad503482fb24e6d1e3b512ae.m3u8.tmp' for writing
frame= 1971 fps= 36 q=51.0 size=N/A time=00:01:19.11 bitrate=N/A dup=2 drop=0 speed=1.43x    [http @ 0000020defd23200] Opening 'http://83.149.84.164:25461/live/server35/server3535/89.m3u8?token=TBEOVUNZG1xBAAZXA1JTAFVXCggFCAcGBVJRBQZRBVUEUl4FUQRcVAEVGRERRxRdV1tnWFQaCw0JGEFBQARHaF5XRA4SAg1SVgQXH0BHD1VTFAIBHBpBXFQWWRYLVg0GBRFKFlVJTQMRWVRfPVcDTl9VXRMKVkRZXBhBW10+UVJaUghQEgsbVkEbF1oRQ0QCWENUXRwaU1xERgJAVkMPFQUHUAMSHRsFDEJbRxBKRAIUYmoTHBpUTURRDUdaDlsVDRELB0UJG0pBXkZsEFYVTERTWVxVShMPEgRBGBEMVE9oUAlaXlRaEgpYW0BACUQJFBoaXF9WWEFfRjxEWgUXDRULUQMGABsb' for reading
[hls @ 0000020dede5ea00] Opening 'http://83.149.84.164:25461/live/server35/server3535/89.m3u8?token=TBEOVUNZG1xBAAZXA1JTAFVXCggFCAcGBVJRBQZRBVUEUl4FUQRcVAEVGRERRxRdV1tnWFQaCw0JGEFBQARHaF5XRA4SAg1SVgQXH0BHD1VTFAIBHBpBXFQWWRYLVg0GBRFKFlVJTQMRWVRfPVcDTl9VXRMKVkRZXBhBW10+UVJaUghQEgsbVkEbF1oRQ0QCWENUXRwaU1xERgJAVkMPFQUHUAMSHRsFDEJbRxBKRAIUYmoTHBpUTURRDUdaDlsVDRELB0UJG0pBXkZsEFYVTERTWVxVShMPEgRBGBEMVE9oUAlaXlRaEgpYW0BACUQJFBoaXF9WWEFfRjxEWgUXDRULUQMGABsb' for reading
[hls @ 0000020dede5ea00] Skip ('#EXT-X-VERSION:3')
[hls @ 0000020dede5ea00] Skip ('#EXT-X-ALLOW-CACHE:YES')
[http @ 0000020dede78640] Opening 'http://83.149.84.164:25461/hlsr/TBEOVUNZG1xBAAZXA1JTAFVXCggFCAcGBVJRBQZRBVUEUl4FUQRcVAEVGRERRxRdV1tnWFQaCw0JGEFBQARHaF5XRA4SAg1SVgQXH0BHD1VTFAIBHBpBXFQWWRYLVg0GBRFKFlVJTQMRWVRfPVcDTl9VXRMKVkRZXBhBW10+UVJaUghQEgsbVkEbF1oRQ0QCWENUXRwaU1xERgJAVkMPFQUHUAMSHRsFDEJbRxBKRAIUYmoTHBpUTURRDUdaDlsVDRELB0UJG0pBXkZsEFYVTERTWVxVShMPEgRBGBEMVE9oUAlaXlRaEgpYW0BACUQJFBoaXF9WWEFfRjxEWgUXDRULUQMGABsb/server35/server3535/89/6974dcd2ebda2d83231c67799ed8619b/89_1980.ts' for reading
[http @ 0000020dede85780] Opening 'http://83.149.84.164:25461/hlsr/TBEOVUNZG1xBAAZXA1JTAFVXCggFCAcGBVJRBQZRBVUEUl4FUQRcVAEVGRERRxRdV1tnWFQaCw0JGEFBQARHaF5XRA4SAg1SVgQXH0BHD1VTFAIBHBpBXFQWWRYLVg0GBRFKFlVJTQMRWVRfPVcDTl9VXRMKVkRZXBhBW10+UVJaUghQEgsbVkEbF1oRQ0QCWENUXRwaU1xERgJAVkMPFQUHUAMSHRsFDEJbRxBKRAIUYmoTHBpUTURRDUdaDlsVDRELB0UJG0pBXkZsEFYVTERTWVxVShMPEgRBGBEMVE9oUAlaXlRaEgpYW0BACUQJFBoaXF9WWEFfRjxEWgUXDRULUQMGABsb/server35/server3535/89/abb1eff7c8cfcf352542ce0731042698/89_1981.ts' for reading
[hls @ 0000020dede5ea00] Opening 'http://83.149.84.164:25461/hlsr/TBEOVUNZG1xBAAZXA1JTAFVXCggFCAcGBVJRBQZRBVUEUl4FUQRcVAEVGRERRxRdV1tnWFQaCw0JGEFBQARHaF5XRA4SAg1SVgQXH0BHD1VTFAIBHBpBXFQWWRYLVg0GBRFKFlVJTQMRWVRfPVcDTl9VXRMKVkRZXBhBW10+UVJaUghQEgsbVkEbF1oRQ0QCWENUXRwaU1xERgJAVkMPFQUHUAMSHRsFDEJbRxBKRAIUYmoTHBpUTURRDUdaDlsVDRELB0UJG0pBXkZsEFYVTERTWVxVShMPEgRBGBEMVE9oUAlaXlRaEgpYW0BACUQJFBoaXF9WWEFfRjxEWgUXDRULUQMGABsb/server35/server3535/89/abb1eff7c8cfcf352542ce0731042698/89_1981.ts' for reading
frame= 1991 fps= 32 q=47.0 size=N/A time=00:01:19.94 bitrate=N/A dup=2 drop=0 speed=1.28x    frame= 2030 fps= 32 q=42.0 size=N/A time=00:01:21.33 bitrate=N/A dup=2 drop=0 speed=1.29x    frame= 2078 fps= 33 q=36.0 size=N/A time=00:01:23.40 bitrate=N/A dup=2 drop=0 speed=1.31x    [hls @ 0000020dee770740] Opening 'C:\xampp\htdocs\iptv\m3u/cc384c68ad503482fb24e6d1e3b512ae0.ts' for writing
[hls @ 0000020dee770740] Opening 'C:\xampp\htdocs\iptv\m3u/cc384c68ad503482fb24e6d1e3b512ae.m3u8.tmp' for writing
frame= 2119 fps= 33 q=38.0 size=N/A time=00:01:25.10 bitrate=N/A dup=2 drop=0 speed=1.33x    frame= 2162 fps= 33 q=35.0 size=N/A time=00:01:26.68 bitrate=N/A dup=2 drop=0 speed=1.34x    frame= 2205 fps= 34 q=35.0 size=N/A time=00:01:28.44 bitrate=N/A dup=2 drop=0 speed=1.36x    [hls @ 0000020dee770740] Opening 'C:\xampp\htdocs\iptv\m3u/cc384c68ad503482fb24e6d1e3b512ae1.ts' for writing
[hls @ 0000020dee770740] Opening 'C:\xampp\htdocs\iptv\m3u/cc384c68ad503482fb24e6d1e3b512ae.m3u8.tmp' for writing
frame= 2249 fps= 34 q=31.0 size=N/A time=00:01:30.16 bitrate=N/A dup=2 drop=0 speed=1.37x    frame= 2276 fps= 34 q=32.0 size=N/A time=00:01:31.30 bitrate=N/A dup=2 drop=0 speed=1.38x    frame= 2296 fps= 34 q=31.0 size=N/A time=00:01:32.06 bitrate=N/A dup=2 drop=0 speed=1.38x    frame= 2342 fps= 35 q=32.0 size=N/A time=00:01:33.92 bitrate=N/A dup=2 drop=0 speed=1.39x    [hls @ 0000020dee770740] Opening 'C:\xampp\htdocs\iptv\m3u/cc384c68ad503482fb24e6d1e3b512ae2.ts' for writing
[hls @ 0000020dee770740] Opening 'C:\xampp\htdocs\iptv\m3u/cc384c68ad503482fb24e6d1e3b512ae.m3u8.tmp' for writing
frame= 2385 fps= 35 q=32.0 size=N/A time=00:01:35.57 bitrate=N/A dup=2 drop=0 speed=1.41x    frame= 2425 fps= 35 q=33.0 size=N/A time=00:01:37.24 bitrate=N/A dup=2 drop=0 speed=1.42x    [hls @ 0000020dee770740] Opening 'C:\xampp\htdocs\iptv\m3u/cc384c68ad503482fb24e6d1e3b512ae3.ts' for writing
[hls @ 0000020dee770740] Opening 'C:\xampp\htdocs\iptv\m3u/cc384c68ad503482fb24e6d1e3b512ae.m3u8.tmp' for writing
frame= 2473 fps= 36 q=31.0 size=N/A time=00:01:39.07 bitrate=N/A dup=2 drop=0 speed=1.44x    [http @ 0000020defa44180] Opening 'http://83.149.84.164:25461/live/server35/server3535/89.m3u8?token=TBEOVUNZG1xBAAZXA1JTAFVXCggFCAcGBVJRBQZRBVUEUl4FUQRcVAEVGRERRxRdV1tnWFQaCw0JGEFBQARHaF5XRA4SAg1SVgQXH0BHD1VTFAIBHBpBXFQWWRYLVg0GBRFKFlVJTQMRWVRfPVcDTl9VXRMKVkRZXBhBW10+UVJaUghQEgsbVkEbF1oRQ0QCWENUXRwaU1xERgJAVkMPFQUHUAMSHRsFDEJbRxBKRAIUYmoTHBpUTURRDUdaDlsVDRELB0UJG0pBXkZsEFYVTERTWVxVShMPEgRBGBEMVE9oUAlaXlRaEgpYW0BACUQJFBoaXF9WWEFfRjxEWgUXDRULUQMGABsb' for reading
[hls @ 0000020dede5ea00] Opening 'http://83.149.84.164:25461/live/server35/server3535/89.m3u8?token=TBEOVUNZG1xBAAZXA1JTAFVXCggFCAcGBVJRBQZRBVUEUl4FUQRcVAEVGRERRxRdV1tnWFQaCw0JGEFBQARHaF5XRA4SAg1SVgQXH0BHD1VTFAIBHBpBXFQWWRYLVg0GBRFKFlVJTQMRWVRfPVcDTl9VXRMKVkRZXBhBW10+UVJaUghQEgsbVkEbF1oRQ0QCWENUXRwaU1xERgJAVkMPFQUHUAMSHRsFDEJbRxBKRAIUYmoTHBpUTURRDUdaDlsVDRELB0UJG0pBXkZsEFYVTERTWVxVShMPEgRBGBEMVE9oUAlaXlRaEgpYW0BACUQJFBoaXF9WWEFfRjxEWgUXDRULUQMGABsb' for reading
[hls @ 0000020dede5ea00] Skip ('#EXT-X-VERSION:3')
[hls @ 0000020dede5ea00] Skip ('#EXT-X-ALLOW-CACHE:YES')
[hls @ 0000020dede5ea00] Opening 'http://83.149.84.164:25461/hlsr/TBEOVUNZG1xBAAZXA1JTAFVXCggFCAcGBVJRBQZRBVUEUl4FUQRcVAEVGRERRxRdV1tnWFQaCw0JGEFBQARHaF5XRA4SAg1SVgQXH0BHD1VTFAIBHBpBXFQWWRYLVg0GBRFKFlVJTQMRWVRfPVcDTl9VXRMKVkRZXBhBW10+UVJaUghQEgsbVkEbF1oRQ0QCWENUXRwaU1xERgJAVkMPFQUHUAMSHRsFDEJbRxBKRAIUYmoTHBpUTURRDUdaDlsVDRELB0UJG0pBXkZsEFYVTERTWVxVShMPEgRBGBEMVE9oUAlaXlRaEgpYW0BACUQJFBoaXF9WWEFfRjxEWgUXDRULUQMGABsb/server35/server3535/89/59b06273893ce5947d538b25885b5864/89_1982.ts' for reading
frame= 2491 fps= 34 q=32.0 size=N/A time=00:01:39.96 bitrate=N/A dup=2 drop=0 speed=1.37x    frame= 2508 fps= 34 q=30.0 size=N/A time=00:01:40.47 bitrate=N/A dup=2 drop=0 speed=1.37x    [hls @ 0000020dee770740] Opening 'C:\xampp\htdocs\iptv\m3u/cc384c68ad503482fb24e6d1e3b512ae4.ts' for writing
[hls @ 0000020dee770740] Opening 'C:\xampp\htdocs\iptv\m3u/cc384c68ad503482fb24e6d1e3b512ae.m3u8.tmp' for writing
frame= 2542 fps= 34 q=32.0 size=N/A time=00:01:41.91 bitrate=N/A dup=2 drop=0 speed=1.38x    frame= 2580 fps= 35 q=31.0 size=N/A time=00:01:43.44 bitrate=N/A dup=2 drop=0 speed=1.39x    frame= 2623 fps= 35 q=31.0 size=N/A time=00:01:45.07 bitrate=N/A dup=2 drop=0 speed= 1.4x    frame= 2667 fps= 35 q=34.0 size=N/A time=00:01:46.90 bitrate=N/A dup=2 drop=0 speed=1.42x    frame= 2710 fps= 36 q=34.0 size=N/A time=00:01:48.62 bitrate=N/A dup=2 drop=0 speed=1.43x    [hls @ 0000020dee770740] Opening 'C:\xampp\htdocs\iptv\m3u/cc384c68ad503482fb24e6d1e3b512ae5.ts' for writing
[hls @ 0000020dee770740] Opening 'C:\xampp\htdocs\iptv\m3u/cc384c68ad503482fb24e6d1e3b512ae.m3u8.tmp' for writing
[http @ 0000020defa44180] Opening 'http://83.149.84.164:25461/live/server35/server3535/89.m3u8?token=TBEOVUNZG1xBAAZXA1JTAFVXCggFCAcGBVJRBQZRBVUEUl4FUQRcVAEVGRERRxRdV1tnWFQaCw0JGEFBQARHaF5XRA4SAg1SVgQXH0BHD1VTFAIBHBpBXFQWWRYLVg0GBRFKFlVJTQMRWVRfPVcDTl9VXRMKVkRZXBhBW10+UVJaUghQEgsbVkEbF1oRQ0QCWENUXRwaU1xERgJAVkMPFQUHUAMSHRsFDEJbRxBKRAIUYmoTHBpUTURRDUdaDlsVDRELB0UJG0pBXkZsEFYVTERTWVxVShMPEgRBGBEMVE9oUAlaXlRaEgpYW0BACUQJFBoaXF9WWEFfRjxEWgUXDRULUQMGABsb' for reading
[hls @ 0000020dede5ea00] Opening 'http://83.149.84.164:25461/live/server35/server3535/89.m3u8?token=TBEOVUNZG1xBAAZXA1JTAFVXCggFCAcGBVJRBQZRBVUEUl4FUQRcVAEVGRERRxRdV1tnWFQaCw0JGEFBQARHaF5XRA4SAg1SVgQXH0BHD1VTFAIBHBpBXFQWWRYLVg0GBRFKFlVJTQMRWVRfPVcDTl9VXRMKVkRZXBhBW10+UVJaUghQEgsbVkEbF1oRQ0QCWENUXRwaU1xERgJAVkMPFQUHUAMSHRsFDEJbRxBKRAIUYmoTHBpUTURRDUdaDlsVDRELB0UJG0pBXkZsEFYVTERTWVxVShMPEgRBGBEMVE9oUAlaXlRaEgpYW0BACUQJFBoaXF9WWEFfRjxEWgUXDRULUQMGABsb' for reading
[hls @ 0000020dede5ea00] Skip ('#EXT-X-VERSION:3')
[hls @ 0000020dede5ea00] Skip ('#EXT-X-ALLOW-CACHE:YES')
[http @ 0000020defa44180] Opening 'http://83.149.84.164:25461/live/server35/server3535/89.m3u8?token=TBEOVUNZG1xBAAZXA1JTAFVXCggFCAcGBVJRBQZRBVUEUl4FUQRcVAEVGRERRxRdV1tnWFQaCw0JGEFBQARHaF5XRA4SAg1SVgQXH0BHD1VTFAIBHBpBXFQWWRYLVg0GBRFKFlVJTQMRWVRfPVcDTl9VXRMKVkRZXBhBW10+UVJaUghQEgsbVkEbF1oRQ0QCWENUXRwaU1xERgJAVkMPFQUHUAMSHRsFDEJbRxBKRAIUYmoTHBpUTURRDUdaDlsVDRELB0UJG0pBXkZsEFYVTERTWVxVShMPEgRBGBEMVE9oUAlaXlRaEgpYW0BACUQJFBoaXF9WWEFfRjxEWgUXDRULUQMGABsb' for reading
[hls @ 0000020dede5ea00] Skip ('#EXT-X-VERSION:3')
[hls @ 0000020dede5ea00] Skip ('#EXT-X-ALLOW-CACHE:YES')
[http @ 0000020df0f99f80] Opening 'http://83.149.84.164:25461/hlsr/TBEOVUNZG1xBAAZXA1JTAFVXCggFCAcGBVJRBQZRBVUEUl4FUQRcVAEVGRERRxRdV1tnWFQaCw0JGEFBQARHaF5XRA4SAg1SVgQXH0BHD1VTFAIBHBpBXFQWWRYLVg0GBRFKFlVJTQMRWVRfPVcDTl9VXRMKVkRZXBhBW10+UVJaUghQEgsbVkEbF1oRQ0QCWENUXRwaU1xERgJAVkMPFQUHUAMSHRsFDEJbRxBKRAIUYmoTHBpUTURRDUdaDlsVDRELB0UJG0pBXkZsEFYVTERTWVxVShMPEgRBGBEMVE9oUAlaXlRaEgpYW0BACUQJFBoaXF9WWEFfRjxEWgUXDRULUQMGABsb/server35/server3535/89/40a3eafc6c32794c171a3d5da49043d6/89_1983.ts' for reading
[hls @ 0000020dede5ea00] Opening 'http://83.149.84.164:25461/hlsr/TBEOVUNZG1xBAAZXA1JTAFVXCggFCAcGBVJRBQZRBVUEUl4FUQRcVAEVGRERRxRdV1tnWFQaCw0JGEFBQARHaF5XRA4SAg1SVgQXH0BHD1VTFAIBHBpBXFQWWRYLVg0GBRFKFlVJTQMRWVRfPVcDTl9VXRMKVkRZXBhBW10+UVJaUghQEgsbVkEbF1oRQ0QCWENUXRwaU1xERgJAVkMPFQUHUAMSHRsFDEJbRxBKRAIUYmoTHBpUTURRDUdaDlsVDRELB0UJG0pBXkZsEFYVTERTWVxVShMPEgRBGBEMVE9oUAlaXlRaEgpYW0BACUQJFBoaXF9WWEFfRjxEWgUXDRULUQMGABsb/server35/server3535/89/40a3eafc6c32794c171a3d5da49043d6/89_1983.ts' for reading
frame= 2741 fps= 31 q=32.0 size=N/A time=00:01:49.94 bitrate=N/A dup=2 drop=0 speed=1.24x    frame= 2768 fps= 31 q=33.0 size=N/A time=00:01:50.87 bitrate=N/A dup=2 drop=0 speed=1.25x    frame= 2810 fps= 31 q=31.0 size=N/A time=00:01:52.63 bitrate=N/A dup=2 drop=0 speed=1.26x    frame= 2852 fps= 32 q=29.0 size=N/A time=00:01:54.40 bitrate=N/A dup=2 drop=0 speed=1.27x    [hls @ 0000020dee770740] Opening 'C:\xampp\htdocs\iptv\m3u/cc384c68ad503482fb24e6d1e3b512ae6.ts' for writing
[hls @ 0000020dee770740] Opening 'C:\xampp\htdocs\iptv\m3u/cc384c68ad503482fb24e6d1e3b512ae.m3u8.tmp' for writing
frame= 2893 fps= 32 q=31.0 size=N/A time=00:01:55.96 bitrate=N/A dup=2 drop=0 speed=1.28x    frame= 2933 fps= 32 q=31.0 size=N/A time=00:01:57.51 bitrate=N/A dup=2 drop=0 speed=1.29x    frame= 2969 fps= 32 q=31.0 size=N/A time=00:01:58.93 bitrate=N/A dup=2 drop=0 speed= 1.3x    [http @ 0000020defa44180] Opening 'http://83.149.84.164:25461/live/server35/server3535/89.m3u8?token=TBEOVUNZG1xBAAZXA1JTAFVXCggFCAcGBVJRBQZRBVUEUl4FUQRcVAEVGRERRxRdV1tnWFQaCw0JGEFBQARHaF5XRA4SAg1SVgQXH0BHD1VTFAIBHBpBXFQWWRYLVg0GBRFKFlVJTQMRWVRfPVcDTl9VXRMKVkRZXBhBW10+UVJaUghQEgsbVkEbF1oRQ0QCWENUXRwaU1xERgJAVkMPFQUHUAMSHRsFDEJbRxBKRAIUYmoTHBpUTURRDUdaDlsVDRELB0UJG0pBXkZsEFYVTERTWVxVShMPEgRBGBEMVE9oUAlaXlRaEgpYW0BACUQJFBoaXF9WWEFfRjxEWgUXDRULUQMGABsb' for reading
[hls @ 0000020dede5ea00] Opening 'http://83.149.84.164:25461/live/server35/server3535/89.m3u8?token=TBEOVUNZG1xBAAZXA1JTAFVXCggFCAcGBVJRBQZRBVUEUl4FUQRcVAEVGRERRxRdV1tnWFQaCw0JGEFBQARHaF5XRA4SAg1SVgQXH0BHD1VTFAIBHBpBXFQWWRYLVg0GBRFKFlVJTQMRWVRfPVcDTl9VXRMKVkRZXBhBW10+UVJaUghQEgsbVkEbF1oRQ0QCWENUXRwaU1xERgJAVkMPFQUHUAMSHRsFDEJbRxBKRAIUYmoTHBpUTURRDUdaDlsVDRELB0UJG0pBXkZsEFYVTERTWVxVShMPEgRBGBEMVE9oUAlaXlRaEgpYW0BACUQJFBoaXF9WWEFfRjxEWgUXDRULUQMGABsb' for reading
[hls @ 0000020dede5ea00] Skip ('#EXT-X-VERSION:3')
[hls @ 0000020dede5ea00] Skip ('#EXT-X-ALLOW-CACHE:YES')
[hls @ 0000020dede5ea00] Opening 'http://83.149.84.164:25461/hlsr/TBEOVUNZG1xBAAZXA1JTAFVXCggFCAcGBVJRBQZRBVUEUl4FUQRcVAEVGRERRxRdV1tnWFQaCw0JGEFBQARHaF5XRA4SAg1SVgQXH0BHD1VTFAIBHBpBXFQWWRYLVg0GBRFKFlVJTQMRWVRfPVcDTl9VXRMKVkRZXBhBW10+UVJaUghQEgsbVkEbF1oRQ0QCWENUXRwaU1xERgJAVkMPFQUHUAMSHRsFDEJbRxBKRAIUYmoTHBpUTURRDUdaDlsVDRELB0UJG0pBXkZsEFYVTERTWVxVShMPEgRBGBEMVE9oUAlaXlRaEgpYW0BACUQJFBoaXF9WWEFfRjxEWgUXDRULUQMGABsb/server35/server3535/89/c773c47d78c6dbc9f3bd45168b48acd0/89_1984.ts' for reading
frame= 2991 fps= 30 q=31.0 size=N/A time=00:01:59.95 bitrate=N/A dup=2 drop=0 speed=1.21x    frame= 3017 fps= 30 q=28.0 size=N/A time=00:02:00.85 bitrate=N/A dup=2 drop=0 speed=1.22x    [hls @ 0000020dee770740] Opening 'C:\xampp\htdocs\iptv\m3u/cc384c68ad503482fb24e6d1e3b512ae7.ts' for writing
[hls @ 0000020dee770740] Opening 'C:\xampp\htdocs\iptv\m3u/cc384c68ad503482fb24e6d1e3b512ae.m3u8.tmp' for writing
frame= 3065 fps= 31 q=28.0 size=N/A time=00:02:02.85 bitrate=N/A dup=2 drop=0 speed=1.23x    frame= 3124 fps= 31 q=28.0 size=N/A time=00:02:05.08 bitrate=N/A dup=2 drop=0 speed=1.25x    frame= 3181 fps= 32 q=28.0 size=N/A time=00:02:07.59 bitrate=N/A dup=2 drop=0 speed=1.27x    frame= 3239 fps= 32 q=28.0 size=N/A time=00:02:09.89 bitrate=N/A dup=2 drop=0 speed=1.28x    [http @ 0000020defa44180] Opening 'http://83.149.84.164:25461/live/server35/server3535/89.m3u8?token=TBEOVUNZG1xBAAZXA1JTAFVXCggFCAcGBVJRBQZRBVUEUl4FUQRcVAEVGRERRxRdV1tnWFQaCw0JGEFBQARHaF5XRA4SAg1SVgQXH0BHD1VTFAIBHBpBXFQWWRYLVg0GBRFKFlVJTQMRWVRfPVcDTl9VXRMKVkRZXBhBW10+UVJaUghQEgsbVkEbF1oRQ0QCWENUXRwaU1xERgJAVkMPFQUHUAMSHRsFDEJbRxBKRAIUYmoTHBpUTURRDUdaDlsVDRELB0UJG0pBXkZsEFYVTERTWVxVShMPEgRBGBEMVE9oUAlaXlRaEgpYW0BACUQJFBoaXF9WWEFfRjxEWgUXDRULUQMGABsb' for reading
[hls @ 0000020dede5ea00] Opening 'http://83.149.84.164:25461/live/server35/server3535/89.m3u8?token=TBEOVUNZG1xBAAZXA1JTAFVXCggFCAcGBVJRBQZRBVUEUl4FUQRcVAEVGRERRxRdV1tnWFQaCw0JGEFBQARHaF5XRA4SAg1SVgQXH0BHD1VTFAIBHBpBXFQWWRYLVg0GBRFKFlVJTQMRWVRfPVcDTl9VXRMKVkRZXBhBW10+UVJaUghQEgsbVkEbF1oRQ0QCWENUXRwaU1xERgJAVkMPFQUHUAMSHRsFDEJbRxBKRAIUYmoTHBpUTURRDUdaDlsVDRELB0UJG0pBXkZsEFYVTERTWVxVShMPEgRBGBEMVE9oUAlaXlRaEgpYW0BACUQJFBoaXF9WWEFfRjxEWgUXDRULUQMGABsb' for reading
[hls @ 0000020dede5ea00] Skip ('#EXT-X-VERSION:3')
[hls @ 0000020dede5ea00] Skip ('#EXT-X-ALLOW-CACHE:YES')
[http @ 0000020df0f94f40] Opening 'http://83.149.84.164:25461/hlsr/TBEOVUNZG1xBAAZXA1JTAFVXCggFCAcGBVJRBQZRBVUEUl4FUQRcVAEVGRERRxRdV1tnWFQaCw0JGEFBQARHaF5XRA4SAg1SVgQXH0BHD1VTFAIBHBpBXFQWWRYLVg0GBRFKFlVJTQMRWVRfPVcDTl9VXRMKVkRZXBhBW10+UVJaUghQEgsbVkEbF1oRQ0QCWENUXRwaU1xERgJAVkMPFQUHUAMSHRsFDEJbRxBKRAIUYmoTHBpUTURRDUdaDlsVDRELB0UJG0pBXkZsEFYVTERTWVxVShMPEgRBGBEMVE9oUAlaXlRaEgpYW0BACUQJFBoaXF9WWEFfRjxEWgUXDRULUQMGABsb/server35/server3535/89/781fa8954785406b93a8206470c6df32/89_1985.ts' for reading
frame= 3241 fps= 30 q=28.0 size=N/A time=00:02:09.96 bitrate=N/A dup=2 drop=0 speed=1.19x    [hls @ 0000020dee770740] Opening 'C:\xampp\htdocs\iptv\m3u/cc384c68ad503482fb24e6d1e3b512ae0.ts' for writing
[hls @ 0000020dee770740] Opening 'C:\xampp\htdocs\iptv\m3u/cc384c68ad503482fb24e6d1e3b512ae.m3u8.tmp' for writing
frame= 3269 fps= 30 q=32.0 size=N/A time=00:02:10.89 bitrate=N/A dup=2 drop=0 speed= 1.2x    frame= 3325 fps= 30 q=28.0 size=N/A time=00:02:13.21 bitrate=N/A dup=2 drop=0 speed=1.21x    frame= 3385 fps= 31 q=28.0 size=N/A time=00:02:15.55 bitrate=N/A dup=2 drop=0 speed=1.23x    frame= 3446 fps= 31 q=28.0 size=N/A time=00:02:18.13 bitrate=N/A dup=2 drop=0 speed=1.24x    [http @ 0000020dede8dc40] Opening 'http://83.149.84.164:25461/live/server35/server3535/89.m3u8?token=TBEOVUNZG1xBAAZXA1JTAFVXCggFCAcGBVJRBQZRBVUEUl4FUQRcVAEVGRERRxRdV1tnWFQaCw0JGEFBQARHaF5XRA4SAg1SVgQXH0BHD1VTFAIBHBpBXFQWWRYLVg0GBRFKFlVJTQMRWVRfPVcDTl9VXRMKVkRZXBhBW10+UVJaUghQEgsbVkEbF1oRQ0QCWENUXRwaU1xERgJAVkMPFQUHUAMSHRsFDEJbRxBKRAIUYmoTHBpUTURRDUdaDlsVDRELB0UJG0pBXkZsEFYVTERTWVxVShMPEgRBGBEMVE9oUAlaXlRaEgpYW0BACUQJFBoaXF9WWEFfRjxEWgUXDRULUQMGABsb' for reading
[hls @ 0000020dede5ea00] Opening 'http://83.149.84.164:25461/live/server35/server3535/89.m3u8?token=TBEOVUNZG1xBAAZXA1JTAFVXCggFCAcGBVJRBQZRBVUEUl4FUQRcVAEVGRERRxRdV1tnWFQaCw0JGEFBQARHaF5XRA4SAg1SVgQXH0BHD1VTFAIBHBpBXFQWWRYLVg0GBRFKFlVJTQMRWVRfPVcDTl9VXRMKVkRZXBhBW10+UVJaUghQEgsbVkEbF1oRQ0QCWENUXRwaU1xERgJAVkMPFQUHUAMSHRsFDEJbRxBKRAIUYmoTHBpUTURRDUdaDlsVDRELB0UJG0pBXkZsEFYVTERTWVxVShMPEgRBGBEMVE9oUAlaXlRaEgpYW0BACUQJFBoaXF9WWEFfRjxEWgUXDRULUQMGABsb' for reading
[hls @ 0000020dede5ea00] Skip ('#EXT-X-VERSION:3')
[hls @ 0000020dede5ea00] Skip ('#EXT-X-ALLOW-CACHE:YES')
[http @ 0000020df0f94f40] Opening 'http://83.149.84.164:25461/hlsr/TBEOVUNZG1xBAAZXA1JTAFVXCggFCAcGBVJRBQZRBVUEUl4FUQRcVAEVGRERRxRdV1tnWFQaCw0JGEFBQARHaF5XRA4SAg1SVgQXH0BHD1VTFAIBHBpBXFQWWRYLVg0GBRFKFlVJTQMRWVRfPVcDTl9VXRMKVkRZXBhBW10+UVJaUghQEgsbVkEbF1oRQ0QCWENUXRwaU1xERgJAVkMPFQUHUAMSHRsFDEJbRxBKRAIUYmoTHBpUTURRDUdaDlsVDRELB0UJG0pBXkZsEFYVTERTWVxVShMPEgRBGBEMVE9oUAlaXlRaEgpYW0BACUQJFBoaXF9WWEFfRjxEWgUXDRULUQMGABsb/server35/server3535/89/7bd545c5e1c67769826bbb148b5f416c/89_1986.ts' for reading
frame= 3491 fps= 29 q=28.0 size=N/A time=00:02:19.94 bitrate=N/A dup=2 drop=0 speed=1.17x    frame= 3508 fps= 29 q=36.0 size=N/A time=00:02:20.45 bitrate=N/A dup=2 drop=0 speed=1.17x    [hls @ 0000020dee770740] Opening 'C:\xampp\htdocs\iptv\m3u/cc384c68ad503482fb24e6d1e3b512ae1.ts' for writing
[hls @ 0000020dee770740] Opening 'C:\xampp\htdocs\iptv\m3u/cc384c68ad503482fb24e6d1e3b512ae.m3u8.tmp' for writing
frame= 3554 fps= 30 q=28.0 size=N/A time=00:02:22.31 bitrate=N/A dup=2 drop=0 speed=1.18x    frame= 3600 fps= 30 q=28.0 size=N/A time=00:02:24.14 bitrate=N/A dup=2 drop=0 speed=1.19x    frame= 3650 fps= 30 q=28.0 size=N/A time=00:02:26.28 bitrate=N/A dup=2 drop=0 speed=1.21x    [hls @ 0000020dee770740] Opening 'C:\xampp\htdocs\iptv\m3u/cc384c68ad503482fb24e6d1e3b512ae2.ts' for writing
[hls @ 0000020dee770740] Opening 'C:\xampp\htdocs\iptv\m3u/cc384c68ad503482fb24e6d1e3b512ae.m3u8.tmp' for writing
frame= 3694 fps= 30 q=31.0 size=N/A time=00:02:27.93 bitrate=N/A dup=2 drop=0 speed=1.22x    frame= 3737 fps= 31 q=30.0 size=N/A time=00:02:29.72 bitrate=N/A dup=2 drop=0 speed=1.22x    [http @ 0000020dede8dc40] Opening 'http://83.149.84.164:25461/live/server35/server3535/89.m3u8?token=TBEOVUNZG1xBAAZXA1JTAFVXCggFCAcGBVJRBQZRBVUEUl4FUQRcVAEVGRERRxRdV1tnWFQaCw0JGEFBQARHaF5XRA4SAg1SVgQXH0BHD1VTFAIBHBpBXFQWWRYLVg0GBRFKFlVJTQMRWVRfPVcDTl9VXRMKVkRZXBhBW10+UVJaUghQEgsbVkEbF1oRQ0QCWENUXRwaU1xERgJAVkMPFQUHUAMSHRsFDEJbRxBKRAIUYmoTHBpUTURRDUdaDlsVDRELB0UJG0pBXkZsEFYVTERTWVxVShMPEgRBGBEMVE9oUAlaXlRaEgpYW0BACUQJFBoaXF9WWEFfRjxEWgUXDRULUQMGABsb' for reading
[hls @ 0000020dede5ea00] Opening 'http://83.149.84.164:25461/live/server35/server3535/89.m3u8?token=TBEOVUNZG1xBAAZXA1JTAFVXCggFCAcGBVJRBQZRBVUEUl4FUQRcVAEVGRERRxRdV1tnWFQaCw0JGEFBQARHaF5XRA4SAg1SVgQXH0BHD1VTFAIBHBpBXFQWWRYLVg0GBRFKFlVJTQMRWVRfPVcDTl9VXRMKVkRZXBhBW10+UVJaUghQEgsbVkEbF1oRQ0QCWENUXRwaU1xERgJAVkMPFQUHUAMSHRsFDEJbRxBKRAIUYmoTHBpUTURRDUdaDlsVDRELB0UJG0pBXkZsEFYVTERTWVxVShMPEgRBGBEMVE9oUAlaXlRaEgpYW0BACUQJFBoaXF9WWEFfRjxEWgUXDRULUQMGABsb' for reading
[hls @ 0000020dede5ea00] Skip ('#EXT-X-VERSION:3')
[hls @ 0000020dede5ea00] Skip ('#EXT-X-ALLOW-CACHE:YES')
[http @ 0000020df0f94f40] Opening 'http://83.149.84.164:25461/hlsr/TBEOVUNZG1xBAAZXA1JTAFVXCggFCAcGBVJRBQZRBVUEUl4FUQRcVAEVGRERRxRdV1tnWFQaCw0JGEFBQARHaF5XRA4SAg1SVgQXH0BHD1VTFAIBHBpBXFQWWRYLVg0GBRFKFlVJTQMRWVRfPVcDTl9VXRMKVkRZXBhBW10+UVJaUghQEgsbVkEbF1oRQ0QCWENUXRwaU1xERgJAVkMPFQUHUAMSHRsFDEJbRxBKRAIUYmoTHBpUTURRDUdaDlsVDRELB0UJG0pBXkZsEFYVTERTWVxVShMPEgRBGBEMVE9oUAlaXlRaEgpYW0BACUQJFBoaXF9WWEFfRjxEWgUXDRULUQMGABsb/server35/server3535/89/c3b6941bb5f8cf184a958cfb7574d210/89_1987.ts' for reading
frame= 3741 fps= 29 q=30.0 size=N/A time=00:02:29.95 bitrate=N/A dup=2 drop=0 speed=1.16x    frame= 3764 fps= 29 q=32.0 size=N/A time=00:02:30.74 bitrate=N/A dup=2 drop=0 speed=1.16x    frame= 3808 fps= 29 q=32.0 size=N/A time=00:02:32.50 bitrate=N/A dup=2 drop=0 speed=1.17x    frame= 3853 fps= 29 q=31.0 size=N/A time=00:02:34.36 bitrate=N/A dup=2 drop=0 speed=1.18x    frame= 3898 fps= 30 q=32.0 size=N/A time=00:02:36.27 bitrate=N/A dup=2 drop=0 speed=1.19x    [hls @ 0000020dee770740] Opening 'C:\xampp\htdocs\iptv\m3u/cc384c68ad503482fb24e6d1e3b512ae3.ts' for writing
[hls @ 0000020dee770740] Opening 'C:\xampp\htdocs\iptv\m3u/cc384c68ad503482fb24e6d1e3b512ae.m3u8.tmp' for writing
frame= 3943 fps= 30 q=30.0 size=N/A time=00:02:37.98 bitrate=N/A dup=2 drop=0 speed= 1.2x    [http @ 0000020dede8dc40] Opening 'http://83.149.84.164:25461/live/server35/server3535/89.m3u8?token=TBEOVUNZG1xBAAZXA1JTAFVXCggFCAcGBVJRBQZRBVUEUl4FUQRcVAEVGRERRxRdV1tnWFQaCw0JGEFBQARHaF5XRA4SAg1SVgQXH0BHD1VTFAIBHBpBXFQWWRYLVg0GBRFKFlVJTQMRWVRfPVcDTl9VXRMKVkRZXBhBW10+UVJaUghQEgsbVkEbF1oRQ0QCWENUXRwaU1xERgJAVkMPFQUHUAMSHRsFDEJbRxBKRAIUYmoTHBpUTURRDUdaDlsVDRELB0UJG0pBXkZsEFYVTERTWVxVShMPEgRBGBEMVE9oUAlaXlRaEgpYW0BACUQJFBoaXF9WWEFfRjxEWgUXDRULUQMGABsb' for reading
[hls @ 0000020dede5ea00] Opening 'http://83.149.84.164:25461/live/server35/server3535/89.m3u8?token=TBEOVUNZG1xBAAZXA1JTAFVXCggFCAcGBVJRBQZRBVUEUl4FUQRcVAEVGRERRxRdV1tnWFQaCw0JGEFBQARHaF5XRA4SAg1SVgQXH0BHD1VTFAIBHBpBXFQWWRYLVg0GBRFKFlVJTQMRWVRfPVcDTl9VXRMKVkRZXBhBW10+UVJaUghQEgsbVkEbF1oRQ0QCWENUXRwaU1xERgJAVkMPFQUHUAMSHRsFDEJbRxBKRAIUYmoTHBpUTURRDUdaDlsVDRELB0UJG0pBXkZsEFYVTERTWVxVShMPEgRBGBEMVE9oUAlaXlRaEgpYW0BACUQJFBoaXF9WWEFfRjxEWgUXDRULUQMGABsb' for reading
[hls @ 0000020dede5ea00] Skip ('#EXT-X-VERSION:3')
[hls @ 0000020dede5ea00] Skip ('#EXT-X-ALLOW-CACHE:YES')
[http @ 0000020df0f94f40] Opening 'http://83.149.84.164:25461/hlsr/TBEOVUNZG1xBAAZXA1JTAFVXCggFCAcGBVJRBQZRBVUEUl4FUQRcVAEVGRERRxRdV1tnWFQaCw0JGEFBQARHaF5XRA4SAg1SVgQXH0BHD1VTFAIBHBpBXFQWWRYLVg0GBRFKFlVJTQMRWVRfPVcDTl9VXRMKVkRZXBhBW10+UVJaUghQEgsbVkEbF1oRQ0QCWENUXRwaU1xERgJAVkMPFQUHUAMSHRsFDEJbRxBKRAIUYmoTHBpUTURRDUdaDlsVDRELB0UJG0pBXkZsEFYVTERTWVxVShMPEgRBGBEMVE9oUAlaXlRaEgpYW0BACUQJFBoaXF9WWEFfRjxEWgUXDRULUQMGABsb/server35/server3535/89/355bbacf04e4ce5023e8cd7f1d12fe39/89_1988.ts' for reading
frame= 3991 fps= 29 q=28.0 size=N/A time=00:02:39.96 bitrate=N/A dup=2 drop=0 speed=1.14x    frame= 4031 fps= 29 q=28.0 size=N/A time=00:02:41.40 bitrate=N/A dup=2 drop=0 speed=1.15x    frame= 4088 fps= 29 q=28.0 size=N/A time=00:02:43.79 bitrate=N/A dup=2 drop=0 speed=1.16x    frame= 4144 fps= 29 q=28.0 size=N/A time=00:02:45.92 bitrate=N/A dup=2 drop=0 speed=1.17x    [hls @ 0000020dee770740] Opening 'C:\xampp\htdocs\iptv\m3u/cc384c68ad503482fb24e6d1e3b512ae4.ts' for writing
[hls @ 0000020dee770740] Opening 'C:\xampp\htdocs\iptv\m3u/cc384c68ad503482fb24e6d1e3b512ae.m3u8.tmp' for writing
frame= 4206 fps= 30 q=28.0 size=N/A time=00:02:48.39 bitrate=N/A dup=2 drop=0 speed=1.19x    [http @ 0000020dede8dc40] Opening 'http://83.149.84.164:25461/live/server35/server3535/89.m3u8?token=TBEOVUNZG1xBAAZXA1JTAFVXCggFCAcGBVJRBQZRBVUEUl4FUQRcVAEVGRERRxRdV1tnWFQaCw0JGEFBQARHaF5XRA4SAg1SVgQXH0BHD1VTFAIBHBpBXFQWWRYLVg0GBRFKFlVJTQMRWVRfPVcDTl9VXRMKVkRZXBhBW10+UVJaUghQEgsbVkEbF1oRQ0QCWENUXRwaU1xERgJAVkMPFQUHUAMSHRsFDEJbRxBKRAIUYmoTHBpUTURRDUdaDlsVDRELB0UJG0pBXkZsEFYVTERTWVxVShMPEgRBGBEMVE9oUAlaXlRaEgpYW0BACUQJFBoaXF9WWEFfRjxEWgUXDRULUQMGABsb' for reading
[hls @ 0000020dede5ea00] Opening 'http://83.149.84.164:25461/live/server35/server3535/89.m3u8?token=TBEOVUNZG1xBAAZXA1JTAFVXCggFCAcGBVJRBQZRBVUEUl4FUQRcVAEVGRERRxRdV1tnWFQaCw0JGEFBQARHaF5XRA4SAg1SVgQXH0BHD1VTFAIBHBpBXFQWWRYLVg0GBRFKFlVJTQMRWVRfPVcDTl9VXRMKVkRZXBhBW10+UVJaUghQEgsbVkEbF1oRQ0QCWENUXRwaU1xERgJAVkMPFQUHUAMSHRsFDEJbRxBKRAIUYmoTHBpUTURRDUdaDlsVDRELB0UJG0pBXkZsEFYVTERTWVxVShMPEgRBGBEMVE9oUAlaXlRaEgpYW0BACUQJFBoaXF9WWEFfRjxEWgUXDRULUQMGABsb' for reading
[hls @ 0000020dede5ea00] Skip ('#EXT-X-VERSION:3')
[hls @ 0000020dede5ea00] Skip ('#EXT-X-ALLOW-CACHE:YES')
[http @ 0000020df0f94f40] Opening 'http://83.149.84.164:25461/hlsr/TBEOVUNZG1xBAAZXA1JTAFVXCggFCAcGBVJRBQZRBVUEUl4FUQRcVAEVGRERRxRdV1tnWFQaCw0JGEFBQARHaF5XRA4SAg1SVgQXH0BHD1VTFAIBHBpBXFQWWRYLVg0GBRFKFlVJTQMRWVRfPVcDTl9VXRMKVkRZXBhBW10+UVJaUghQEgsbVkEbF1oRQ0QCWENUXRwaU1xERgJAVkMPFQUHUAMSHRsFDEJbRxBKRAIUYmoTHBpUTURRDUdaDlsVDRELB0UJG0pBXkZsEFYVTERTWVxVShMPEgRBGBEMVE9oUAlaXlRaEgpYW0BACUQJFBoaXF9WWEFfRjxEWgUXDRULUQMGABsb/server35/server3535/89/8b70866eb0d234937d1cbffe55be19d5/89_1989.ts' for reading
frame= 4241 fps= 28 q=28.0 size=N/A time=00:02:49.94 bitrate=N/A dup=2 drop=0 speed=1.13x    frame= 4276 fps= 28 q=28.0 size=N/A time=00:02:51.31 bitrate=N/A dup=2 drop=0 speed=1.14x    frame= 4332 fps= 29 q=28.0 size=N/A time=00:02:53.61 bitrate=N/A dup=2 drop=0 speed=1.15x    frame= 4391 fps= 29 q=28.0 size=N/A time=00:02:55.91 bitrate=N/A dup=2 drop=0 speed=1.16x    [hls @ 0000020dee770740] Opening 'C:\xampp\htdocs\iptv\m3u/cc384c68ad503482fb24e6d1e3b512ae5.ts' for writing
[hls @ 0000020dee770740] Opening 'C:\xampp\htdocs\iptv\m3u/cc384c68ad503482fb24e6d1e3b512ae.m3u8.tmp' for writing
frame= 4443 fps= 29 q=28.0 size=N/A time=00:02:57.84 bitrate=N/A dup=2 drop=0 speed=1.17x    [http @ 0000020dee9b59c0] Opening 'http://83.149.84.164:25461/live/server35/server3535/89.m3u8?token=TBEOVUNZG1xBAAZXA1JTAFVXCggFCAcGBVJRBQZRBVUEUl4FUQRcVAEVGRERRxRdV1tnWFQaCw0JGEFBQARHaF5XRA4SAg1SVgQXH0BHD1VTFAIBHBpBXFQWWRYLVg0GBRFKFlVJTQMRWVRfPVcDTl9VXRMKVkRZXBhBW10+UVJaUghQEgsbVkEbF1oRQ0QCWENUXRwaU1xERgJAVkMPFQUHUAMSHRsFDEJbRxBKRAIUYmoTHBpUTURRDUdaDlsVDRELB0UJG0pBXkZsEFYVTERTWVxVShMPEgRBGBEMVE9oUAlaXlRaEgpYW0BACUQJFBoaXF9WWEFfRjxEWgUXDRULUQMGABsb' for reading
[hls @ 0000020dede5ea00] Opening 'http://83.149.84.164:25461/live/server35/server3535/89.m3u8?token=TBEOVUNZG1xBAAZXA1JTAFVXCggFCAcGBVJRBQZRBVUEUl4FUQRcVAEVGRERRxRdV1tnWFQaCw0JGEFBQARHaF5XRA4SAg1SVgQXH0BHD1VTFAIBHBpBXFQWWRYLVg0GBRFKFlVJTQMRWVRfPVcDTl9VXRMKVkRZXBhBW10+UVJaUghQEgsbVkEbF1oRQ0QCWENUXRwaU1xERgJAVkMPFQUHUAMSHRsFDEJbRxBKRAIUYmoTHBpUTURRDUdaDlsVDRELB0UJG0pBXkZsEFYVTERTWVxVShMPEgRBGBEMVE9oUAlaXlRaEgpYW0BACUQJFBoaXF9WWEFfRjxEWgUXDRULUQMGABsb' for reading
[hls @ 0000020dede5ea00] Skip ('#EXT-X-VERSION:3')
[hls @ 0000020dede5ea00] Skip ('#EXT-X-ALLOW-CACHE:YES')
[http @ 0000020df0f94f40] Opening 'http://83.149.84.164:25461/hlsr/TBEOVUNZG1xBAAZXA1JTAFVXCggFCAcGBVJRBQZRBVUEUl4FUQRcVAEVGRERRxRdV1tnWFQaCw0JGEFBQARHaF5XRA4SAg1SVgQXH0BHD1VTFAIBHBpBXFQWWRYLVg0GBRFKFlVJTQMRWVRfPVcDTl9VXRMKVkRZXBhBW10+UVJaUghQEgsbVkEbF1oRQ0QCWENUXRwaU1xERgJAVkMPFQUHUAMSHRsFDEJbRxBKRAIUYmoTHBpUTURRDUdaDlsVDRELB0UJG0pBXkZsEFYVTERTWVxVShMPEgRBGBEMVE9oUAlaXlRaEgpYW0BACUQJFBoaXF9WWEFfRjxEWgUXDRULUQMGABsb/server35/server3535/89/77124beda396c80ef6f20e1f119e0354/89_1990.ts' for reading
frame= 4491 fps= 28 q=28.0 size=N/A time=00:02:59.95 bitrate=N/A dup=2 drop=0 speed=1.12x    frame= 4525 fps= 28 q=28.0 size=N/A time=00:03:01.13 bitrate=N/A dup=2 drop=0 speed=1.13x    frame= 4587 fps= 28 q=28.0 size=N/A time=00:03:03.66 bitrate=N/A dup=2 drop=0 speed=1.14x    frame= 4646 fps= 29 q=28.0 size=N/A time=00:03:05.99 bitrate=N/A dup=2 drop=0 speed=1.15x    [hls @ 0000020dee770740] Opening 'C:\xampp\htdocs\iptv\m3u/cc384c68ad503482fb24e6d1e3b512ae6.ts' for writing
[hls @ 0000020dee770740] Opening 'C:\xampp\htdocs\iptv\m3u/cc384c68ad503482fb24e6d1e3b512ae.m3u8.tmp' for writing
frame= 4708 fps= 29 q=28.0 size=N/A time=00:03:08.49 bitrate=N/A dup=2 drop=0 speed=1.16x    [http @ 0000020d82cd0fc0] Opening 'http://83.149.84.164:25461/live/server35/server3535/89.m3u8?token=TBEOVUNZG1xBAAZXA1JTAFVXCggFCAcGBVJRBQZRBVUEUl4FUQRcVAEVGRERRxRdV1tnWFQaCw0JGEFBQARHaF5XRA4SAg1SVgQXH0BHD1VTFAIBHBpBXFQWWRYLVg0GBRFKFlVJTQMRWVRfPVcDTl9VXRMKVkRZXBhBW10+UVJaUghQEgsbVkEbF1oRQ0QCWENUXRwaU1xERgJAVkMPFQUHUAMSHRsFDEJbRxBKRAIUYmoTHBpUTURRDUdaDlsVDRELB0UJG0pBXkZsEFYVTERTWVxVShMPEgRBGBEMVE9oUAlaXlRaEgpYW0BACUQJFBoaXF9WWEFfRjxEWgUXDRULUQMGABsb' for reading
[hls @ 0000020dede5ea00] Opening 'http://83.149.84.164:25461/live/server35/server3535/89.m3u8?token=TBEOVUNZG1xBAAZXA1JTAFVXCggFCAcGBVJRBQZRBVUEUl4FUQRcVAEVGRERRxRdV1tnWFQaCw0JGEFBQARHaF5XRA4SAg1SVgQXH0BHD1VTFAIBHBpBXFQWWRYLVg0GBRFKFlVJTQMRWVRfPVcDTl9VXRMKVkRZXBhBW10+UVJaUghQEgsbVkEbF1oRQ0QCWENUXRwaU1xERgJAVkMPFQUHUAMSHRsFDEJbRxBKRAIUYmoTHBpUTURRDUdaDlsVDRELB0UJG0pBXkZsEFYVTERTWVxVShMPEgRBGBEMVE9oUAlaXlRaEgpYW0BACUQJFBoaXF9WWEFfRjxEWgUXDRULUQMGABsb' for reading
[hls @ 0000020dede5ea00] Skip ('#EXT-X-VERSION:3')
[hls @ 0000020dede5ea00] Skip ('#EXT-X-ALLOW-CACHE:YES')
[http @ 0000020df0f94f40] Opening 'http://83.149.84.164:25461/hlsr/TBEOVUNZG1xBAAZXA1JTAFVXCggFCAcGBVJRBQZRBVUEUl4FUQRcVAEVGRERRxRdV1tnWFQaCw0JGEFBQARHaF5XRA4SAg1SVgQXH0BHD1VTFAIBHBpBXFQWWRYLVg0GBRFKFlVJTQMRWVRfPVcDTl9VXRMKVkRZXBhBW10+UVJaUghQEgsbVkEbF1oRQ0QCWENUXRwaU1xERgJAVkMPFQUHUAMSHRsFDEJbRxBKRAIUYmoTHBpUTURRDUdaDlsVDRELB0UJG0pBXkZsEFYVTERTWVxVShMPEgRBGBEMVE9oUAlaXlRaEgpYW0BACUQJFBoaXF9WWEFfRjxEWgUXDRULUQMGABsb/server35/server3535/89/af96479b174c3b6903994956bb0bf977/89_1991.ts' for reading
[hls @ 0000020dede5ea00] Opening 'http://83.149.84.164:25461/hlsr/TBEOVUNZG1xBAAZXA1JTAFVXCggFCAcGBVJRBQZRBVUEUl4FUQRcVAEVGRERRxRdV1tnWFQaCw0JGEFBQARHaF5XRA4SAg1SVgQXH0BHD1VTFAIBHBpBXFQWWRYLVg0GBRFKFlVJTQMRWVRfPVcDTl9VXRMKVkRZXBhBW10+UVJaUghQEgsbVkEbF1oRQ0QCWENUXRwaU1xERgJAVkMPFQUHUAMSHRsFDEJbRxBKRAIUYmoTHBpUTURRDUdaDlsVDRELB0UJG0pBXkZsEFYVTERTWVxVShMPEgRBGBEMVE9oUAlaXlRaEgpYW0BACUQJFBoaXF9WWEFfRjxEWgUXDRULUQMGABsb/server35/server3535/89/af96479b174c3b6903994956bb0bf977/89_1991.ts' for reading
frame= 4741 fps= 28 q=28.0 size=N/A time=00:03:09.96 bitrate=N/A dup=2 drop=0 speed=1.11x    frame= 4780 fps= 28 q=28.0 size=N/A time=00:03:11.35 bitrate=N/A dup=2 drop=0 speed=1.12x    frame= 4841 fps= 28 q=28.0 size=N/A time=00:03:13.81 bitrate=N/A dup=2 drop=0 speed=1.13x    [hls @ 0000020dee770740] Opening 'C:\xampp\htdocs\iptv\m3u/cc384c68ad503482fb24e6d1e3b512ae7.ts' for writing
[hls @ 0000020dee770740] Opening 'C:\xampp\htdocs\iptv\m3u/cc384c68ad503482fb24e6d1e3b512ae.m3u8.tmp' for writing
frame= 4890 fps= 28 q=33.0 size=N/A time=00:03:15.83 bitrate=N/A dup=2 drop=0 speed=1.14x    frame= 4943 fps= 29 q=32.0 size=N/A time=00:03:17.97 bitrate=N/A dup=2 drop=0 speed=1.14x    frame= 4988 fps= 29 q=33.0 size=N/A time=00:03:19.66 bitrate=N/A dup=2 drop=0 speed=1.15x    [http @ 0000020d82cd0fc0] Opening 'http://83.149.84.164:25461/live/server35/server3535/89.m3u8?token=TBEOVUNZG1xBAAZXA1JTAFVXCggFCAcGBVJRBQZRBVUEUl4FUQRcVAEVGRERRxRdV1tnWFQaCw0JGEFBQARHaF5XRA4SAg1SVgQXH0BHD1VTFAIBHBpBXFQWWRYLVg0GBRFKFlVJTQMRWVRfPVcDTl9VXRMKVkRZXBhBW10+UVJaUghQEgsbVkEbF1oRQ0QCWENUXRwaU1xERgJAVkMPFQUHUAMSHRsFDEJbRxBKRAIUYmoTHBpUTURRDUdaDlsVDRELB0UJG0pBXkZsEFYVTERTWVxVShMPEgRBGBEMVE9oUAlaXlRaEgpYW0BACUQJFBoaXF9WWEFfRjxEWgUXDRULUQMGABsb' for reading
[hls @ 0000020dede5ea00] Opening 'http://83.149.84.164:25461/live/server35/server3535/89.m3u8?token=TBEOVUNZG1xBAAZXA1JTAFVXCggFCAcGBVJRBQZRBVUEUl4FUQRcVAEVGRERRxRdV1tnWFQaCw0JGEFBQARHaF5XRA4SAg1SVgQXH0BHD1VTFAIBHBpBXFQWWRYLVg0GBRFKFlVJTQMRWVRfPVcDTl9VXRMKVkRZXBhBW10+UVJaUghQEgsbVkEbF1oRQ0QCWENUXRwaU1xERgJAVkMPFQUHUAMSHRsFDEJbRxBKRAIUYmoTHBpUTURRDUdaDlsVDRELB0UJG0pBXkZsEFYVTERTWVxVShMPEgRBGBEMVE9oUAlaXlRaEgpYW0BACUQJFBoaXF9WWEFfRjxEWgUXDRULUQMGABsb' for reading
[hls @ 0000020dede5ea00] Skip ('#EXT-X-VERSION:3')
[hls @ 0000020dede5ea00] Skip ('#EXT-X-ALLOW-CACHE:YES')
[hls @ 0000020dede5ea00] Opening 'http://83.149.84.164:25461/hlsr/TBEOVUNZG1xBAAZXA1JTAFVXCggFCAcGBVJRBQZRBVUEUl4FUQRcVAEVGRERRxRdV1tnWFQaCw0JGEFBQARHaF5XRA4SAg1SVgQXH0BHD1VTFAIBHBpBXFQWWRYLVg0GBRFKFlVJTQMRWVRfPVcDTl9VXRMKVkRZXBhBW10+UVJaUghQEgsbVkEbF1oRQ0QCWENUXRwaU1xERgJAVkMPFQUHUAMSHRsFDEJbRxBKRAIUYmoTHBpUTURRDUdaDlsVDRELB0UJG0pBXkZsEFYVTERTWVxVShMPEgRBGBEMVE9oUAlaXlRaEgpYW0BACUQJFBoaXF9WWEFfRjxEWgUXDRULUQMGABsb/server35/server3535/89/7eee8c3859e139edd385b5c4829dbd05/89_1992.ts' for reading
frame= 4991 fps= 28 q=33.0 size=N/A time=00:03:19.94 bitrate=N/A dup=2 drop=0 speed= 1.1x    frame= 4996 fps= 27 q=33.0 size=N/A time=00:03:19.97 bitrate=N/A dup=2 drop=0 speed= 1.1x    frame= 5030 fps= 28 q=34.0 size=N/A time=00:03:21.34 bitrate=N/A dup=2 drop=0 speed= 1.1x    frame= 5061 fps= 28 q=41.0 size=N/A time=00:03:22.57 bitrate=N/A dup=2 drop=0 speed=1.11x    frame= 5101 fps= 28 q=37.0 size=N/A time=00:03:24.33 bitrate=N/A dup=2 drop=0 speed=1.11x    [hls @ 0000020dee770740] Opening 'C:\xampp\htdocs\iptv\m3u/cc384c68ad503482fb24e6d1e3b512ae0.ts' for writing
[hls @ 0000020dee770740] Opening 'C:\xampp\htdocs\iptv\m3u/cc384c68ad503482fb24e6d1e3b512ae.m3u8.tmp' for writing
frame= 5144 fps= 28 q=42.0 size=N/A time=00:03:25.96 bitrate=N/A dup=2 drop=0 speed=1.12x    frame= 5187 fps= 28 q=38.0 size=N/A time=00:03:27.67 bitrate=N/A dup=2 drop=0 speed=1.13x    frame= 5232 fps= 28 q=37.0 size=N/A time=00:03:29.53 bitrate=N/A dup=2 drop=0 speed=1.13x    [http @ 0000020dee9c9800] Opening 'http://83.149.84.164:25461/live/server35/server3535/89.m3u8?token=TBEOVUNZG1xBAAZXA1JTAFVXCggFCAcGBVJRBQZRBVUEUl4FUQRcVAEVGRERRxRdV1tnWFQaCw0JGEFBQARHaF5XRA4SAg1SVgQXH0BHD1VTFAIBHBpBXFQWWRYLVg0GBRFKFlVJTQMRWVRfPVcDTl9VXRMKVkRZXBhBW10+UVJaUghQEgsbVkEbF1oRQ0QCWENUXRwaU1xERgJAVkMPFQUHUAMSHRsFDEJbRxBKRAIUYmoTHBpUTURRDUdaDlsVDRELB0UJG0pBXkZsEFYVTERTWVxVShMPEgRBGBEMVE9oUAlaXlRaEgpYW0BACUQJFBoaXF9WWEFfRjxEWgUXDRULUQMGABsb' for reading
[hls @ 0000020dede5ea00] Opening 'http://83.149.84.164:25461/live/server35/server3535/89.m3u8?token=TBEOVUNZG1xBAAZXA1JTAFVXCggFCAcGBVJRBQZRBVUEUl4FUQRcVAEVGRERRxRdV1tnWFQaCw0JGEFBQARHaF5XRA4SAg1SVgQXH0BHD1VTFAIBHBpBXFQWWRYLVg0GBRFKFlVJTQMRWVRfPVcDTl9VXRMKVkRZXBhBW10+UVJaUghQEgsbVkEbF1oRQ0QCWENUXRwaU1xERgJAVkMPFQUHUAMSHRsFDEJbRxBKRAIUYmoTHBpUTURRDUdaDlsVDRELB0UJG0pBXkZsEFYVTERTWVxVShMPEgRBGBEMVE9oUAlaXlRaEgpYW0BACUQJFBoaXF9WWEFfRjxEWgUXDRULUQMGABsb' for reading
[hls @ 0000020dede5ea00] Skip ('#EXT-X-VERSION:3')
[hls @ 0000020dede5ea00] Skip ('#EXT-X-ALLOW-CACHE:YES')
[http @ 0000020df0f94a80] Opening 'http://83.149.84.164:25461/hlsr/TBEOVUNZG1xBAAZXA1JTAFVXCggFCAcGBVJRBQZRBVUEUl4FUQRcVAEVGRERRxRdV1tnWFQaCw0JGEFBQARHaF5XRA4SAg1SVgQXH0BHD1VTFAIBHBpBXFQWWRYLVg0GBRFKFlVJTQMRWVRfPVcDTl9VXRMKVkRZXBhBW10+UVJaUghQEgsbVkEbF1oRQ0QCWENUXRwaU1xERgJAVkMPFQUHUAMSHRsFDEJbRxBKRAIUYmoTHBpUTURRDUdaDlsVDRELB0UJG0pBXkZsEFYVTERTWVxVShMPEgRBGBEMVE9oUAlaXlRaEgpYW0BACUQJFBoaXF9WWEFfRjxEWgUXDRULUQMGABsb/server35/server3535/89/69f07ee676daeefed0854ceec2378c18/89_1993.ts' for reading
frame= 5241 fps= 27 q=35.0 size=N/A time=00:03:29.95 bitrate=N/A dup=2 drop=0 speed= 1.1x    frame= 5274 fps= 27 q=36.0 size=N/A time=00:03:31.13 bitrate=N/A dup=2 drop=0 speed= 1.1x    frame= 5325 fps= 28 q=36.0 size=N/A time=00:03:33.15 bitrate=N/A dup=2 drop=0 speed=1.11x    frame= 5373 fps= 28 q=44.0 size=N/A time=00:03:35.04 bitrate=N/A dup=2 drop=0 speed=1.11x    [hls @ 0000020dee770740] Opening 'C:\xampp\htdocs\iptv\m3u/cc384c68ad503482fb24e6d1e3b512ae1.ts' for writing
[hls @ 0000020dee770740] Opening 'C:\xampp\htdocs\iptv\m3u/cc384c68ad503482fb24e6d1e3b512ae.m3u8.tmp' for writing
frame= 5417 fps= 28 q=38.0 size=N/A time=00:03:36.85 bitrate=N/A dup=2 drop=0 speed=1.12x    frame= 5463 fps= 28 q=35.0 size=N/A time=00:03:38.73 bitrate=N/A dup=2 drop=0 speed=1.13x    [http @ 0000020dee9c9800] Opening 'http://83.149.84.164:25461/live/server35/server3535/89.m3u8?token=TBEOVUNZG1xBAAZXA1JTAFVXCggFCAcGBVJRBQZRBVUEUl4FUQRcVAEVGRERRxRdV1tnWFQaCw0JGEFBQARHaF5XRA4SAg1SVgQXH0BHD1VTFAIBHBpBXFQWWRYLVg0GBRFKFlVJTQMRWVRfPVcDTl9VXRMKVkRZXBhBW10+UVJaUghQEgsbVkEbF1oRQ0QCWENUXRwaU1xERgJAVkMPFQUHUAMSHRsFDEJbRxBKRAIUYmoTHBpUTURRDUdaDlsVDRELB0UJG0pBXkZsEFYVTERTWVxVShMPEgRBGBEMVE9oUAlaXlRaEgpYW0BACUQJFBoaXF9WWEFfRjxEWgUXDRULUQMGABsb' for reading
[hls @ 0000020dede5ea00] Opening 'http://83.149.84.164:25461/live/server35/server3535/89.m3u8?token=TBEOVUNZG1xBAAZXA1JTAFVXCggFCAcGBVJRBQZRBVUEUl4FUQRcVAEVGRERRxRdV1tnWFQaCw0JGEFBQARHaF5XRA4SAg1SVgQXH0BHD1VTFAIBHBpBXFQWWRYLVg0GBRFKFlVJTQMRWVRfPVcDTl9VXRMKVkRZXBhBW10+UVJaUghQEgsbVkEbF1oRQ0QCWENUXRwaU1xERgJAVkMPFQUHUAMSHRsFDEJbRxBKRAIUYmoTHBpUTURRDUdaDlsVDRELB0UJG0pBXkZsEFYVTERTWVxVShMPEgRBGBEMVE9oUAlaXlRaEgpYW0BACUQJFBoaXF9WWEFfRjxEWgUXDRULUQMGABsb' for reading
[hls @ 0000020dede5ea00] Skip ('#EXT-X-VERSION:3')
[hls @ 0000020dede5ea00] Skip ('#EXT-X-ALLOW-CACHE:YES')
[http @ 0000020df0f94a80] Opening 'http://83.149.84.164:25461/hlsr/TBEOVUNZG1xBAAZXA1JTAFVXCggFCAcGBVJRBQZRBVUEUl4FUQRcVAEVGRERRxRdV1tnWFQaCw0JGEFBQARHaF5XRA4SAg1SVgQXH0BHD1VTFAIBHBpBXFQWWRYLVg0GBRFKFlVJTQMRWVRfPVcDTl9VXRMKVkRZXBhBW10+UVJaUghQEgsbVkEbF1oRQ0QCWENUXRwaU1xERgJAVkMPFQUHUAMSHRsFDEJbRxBKRAIUYmoTHBpUTURRDUdaDlsVDRELB0UJG0pBXkZsEFYVTERTWVxVShMPEgRBGBEMVE9oUAlaXlRaEgpYW0BACUQJFBoaXF9WWEFfRjxEWgUXDRULUQMGABsb/server35/server3535/89/7cadb79237785206fb766c5753ed7bc2/89_1994.ts' for reading
frame= 5491 fps= 27 q=35.0 size=N/A time=00:03:39.96 bitrate=N/A dup=2 drop=0 speed=1.09x    frame= 5520 fps= 27 q=36.0 size=N/A time=00:03:40.96 bitrate=N/A dup=2 drop=0 speed=1.09x    frame= 5573 fps= 27 q=32.0 size=N/A time=00:03:43.09 bitrate=N/A dup=2 drop=0 speed= 1.1x    frame= 5626 fps= 28 q=36.0 size=N/A time=00:03:45.21 bitrate=N/A dup=2 drop=0 speed=1.11x    [hls @ 0000020dee770740] Opening 'C:\xampp\htdocs\iptv\m3u/cc384c68ad503482fb24e6d1e3b512ae2.ts' for writing
[hls @ 0000020dee770740] Opening 'C:\xampp\htdocs\iptv\m3u/cc384c68ad503482fb24e6d1e3b512ae.m3u8.tmp' for writing
frame= 5673 fps= 28 q=32.0 size=N/A time=00:03:47.20 bitrate=N/A dup=2 drop=0 speed=1.11x    frame= 5716 fps= 28 q=32.0 size=N/A time=00:03:48.83 bitrate=N/A dup=2 drop=0 speed=1.12x    [http @ 0000020dee9c9800] Opening 'http://83.149.84.164:25461/live/server35/server3535/89.m3u8?token=TBEOVUNZG1xBAAZXA1JTAFVXCggFCAcGBVJRBQZRBVUEUl4FUQRcVAEVGRERRxRdV1tnWFQaCw0JGEFBQARHaF5XRA4SAg1SVgQXH0BHD1VTFAIBHBpBXFQWWRYLVg0GBRFKFlVJTQMRWVRfPVcDTl9VXRMKVkRZXBhBW10+UVJaUghQEgsbVkEbF1oRQ0QCWENUXRwaU1xERgJAVkMPFQUHUAMSHRsFDEJbRxBKRAIUYmoTHBpUTURRDUdaDlsVDRELB0UJG0pBXkZsEFYVTERTWVxVShMPEgRBGBEMVE9oUAlaXlRaEgpYW0BACUQJFBoaXF9WWEFfRjxEWgUXDRULUQMGABsb' for reading
[hls @ 0000020dede5ea00] Opening 'http://83.149.84.164:25461/live/server35/server3535/89.m3u8?token=TBEOVUNZG1xBAAZXA1JTAFVXCggFCAcGBVJRBQZRBVUEUl4FUQRcVAEVGRERRxRdV1tnWFQaCw0JGEFBQARHaF5XRA4SAg1SVgQXH0BHD1VTFAIBHBpBXFQWWRYLVg0GBRFKFlVJTQMRWVRfPVcDTl9VXRMKVkRZXBhBW10+UVJaUghQEgsbVkEbF1oRQ0QCWENUXRwaU1xERgJAVkMPFQUHUAMSHRsFDEJbRxBKRAIUYmoTHBpUTURRDUdaDlsVDRELB0UJG0pBXkZsEFYVTERTWVxVShMPEgRBGBEMVE9oUAlaXlRaEgpYW0BACUQJFBoaXF9WWEFfRjxEWgUXDRULUQMGABsb' for reading
[hls @ 0000020dede5ea00] Skip ('#EXT-X-VERSION:3')
[hls @ 0000020dede5ea00] Skip ('#EXT-X-ALLOW-CACHE:YES')
[http @ 0000020df0f94a80] Opening 'http://83.149.84.164:25461/hlsr/TBEOVUNZG1xBAAZXA1JTAFVXCggFCAcGBVJRBQZRBVUEUl4FUQRcVAEVGRERRxRdV1tnWFQaCw0JGEFBQARHaF5XRA4SAg1SVgQXH0BHD1VTFAIBHBpBXFQWWRYLVg0GBRFKFlVJTQMRWVRfPVcDTl9VXRMKVkRZXBhBW10+UVJaUghQEgsbVkEbF1oRQ0QCWENUXRwaU1xERgJAVkMPFQUHUAMSHRsFDEJbRxBKRAIUYmoTHBpUTURRDUdaDlsVDRELB0UJG0pBXkZsEFYVTERTWVxVShMPEgRBGBEMVE9oUAlaXlRaEgpYW0BACUQJFBoaXF9WWEFfRjxEWgUXDRULUQMGABsb/server35/server3535/89/39955785d0800758c3e54ba251165abe/89_1995.ts' for reading
frame= 5741 fps= 27 q=30.0 size=N/A time=00:03:49.94 bitrate=N/A dup=2 drop=0 speed=1.08x    frame= 5769 fps= 27 q=31.0 size=N/A time=00:03:50.92 bitrate=N/A dup=2 drop=0 speed=1.09x    frame= 5814 fps= 27 q=31.0 size=N/A time=00:03:52.75 bitrate=N/A dup=2 drop=0 speed=1.09x    frame= 5861 fps= 27 q=31.0 size=N/A time=00:03:54.68 bitrate=N/A dup=2 drop=0 speed= 1.1x    [hls @ 0000020dee770740] Opening 'C:\xampp\htdocs\iptv\m3u/cc384c68ad503482fb24e6d1e3b512ae3.ts' for writing
[hls @ 0000020dee770740] Opening 'C:\xampp\htdocs\iptv\m3u/cc384c68ad503482fb24e6d1e3b512ae.m3u8.tmp' for writing
frame= 5892 fps= 27 q=30.0 size=N/A time=00:03:55.84 bitrate=N/A dup=2 drop=0 speed= 1.1x    frame= 5938 fps= 28 q=30.0 size=N/A time=00:03:57.70 bitrate=N/A dup=2 drop=0 speed=1.11x    frame= 5982 fps= 28 q=32.0 size=N/A time=00:03:59.42 bitrate=N/A dup=2 drop=0 speed=1.11x    [http @ 0000020dee9c9800] Opening 'http://83.149.84.164:25461/live/server35/server3535/89.m3u8?token=TBEOVUNZG1xBAAZXA1JTAFVXCggFCAcGBVJRBQZRBVUEUl4FUQRcVAEVGRERRxRdV1tnWFQaCw0JGEFBQARHaF5XRA4SAg1SVgQXH0BHD1VTFAIBHBpBXFQWWRYLVg0GBRFKFlVJTQMRWVRfPVcDTl9VXRMKVkRZXBhBW10+UVJaUghQEgsbVkEbF1oRQ0QCWENUXRwaU1xERgJAVkMPFQUHUAMSHRsFDEJbRxBKRAIUYmoTHBpUTURRDUdaDlsVDRELB0UJG0pBXkZsEFYVTERTWVxVShMPEgRBGBEMVE9oUAlaXlRaEgpYW0BACUQJFBoaXF9WWEFfRjxEWgUXDRULUQMGABsb' for reading
[hls @ 0000020dede5ea00] Opening 'http://83.149.84.164:25461/live/server35/server3535/89.m3u8?token=TBEOVUNZG1xBAAZXA1JTAFVXCggFCAcGBVJRBQZRBVUEUl4FUQRcVAEVGRERRxRdV1tnWFQaCw0JGEFBQARHaF5XRA4SAg1SVgQXH0BHD1VTFAIBHBpBXFQWWRYLVg0GBRFKFlVJTQMRWVRfPVcDTl9VXRMKVkRZXBhBW10+UVJaUghQEgsbVkEbF1oRQ0QCWENUXRwaU1xERgJAVkMPFQUHUAMSHRsFDEJbRxBKRAIUYmoTHBpUTURRDUdaDlsVDRELB0UJG0pBXkZsEFYVTERTWVxVShMPEgRBGBEMVE9oUAlaXlRaEgpYW0BACUQJFBoaXF9WWEFfRjxEWgUXDRULUQMGABsb' for reading
[hls @ 0000020dede5ea00] Skip ('#EXT-X-VERSION:3')
[hls @ 0000020dede5ea00] Skip ('#EXT-X-ALLOW-CACHE:YES')
[http @ 0000020df0f94a80] Opening 'http://83.149.84.164:25461/hlsr/TBEOVUNZG1xBAAZXA1JTAFVXCggFCAcGBVJRBQZRBVUEUl4FUQRcVAEVGRERRxRdV1tnWFQaCw0JGEFBQARHaF5XRA4SAg1SVgQXH0BHD1VTFAIBHBpBXFQWWRYLVg0GBRFKFlVJTQMRWVRfPVcDTl9VXRMKVkRZXBhBW10+UVJaUghQEgsbVkEbF1oRQ0QCWENUXRwaU1xERgJAVkMPFQUHUAMSHRsFDEJbRxBKRAIUYmoTHBpUTURRDUdaDlsVDRELB0UJG0pBXkZsEFYVTERTWVxVShMPEgRBGBEMVE9oUAlaXlRaEgpYW0BACUQJFBoaXF9WWEFfRjxEWgUXDRULUQMGABsb/server35/server3535/89/c299f6933bf7027e05a6a9d7e1542f12/89_1996.ts' for reading
frame= 5991 fps= 27 q=30.0 size=N/A time=00:03:59.95 bitrate=N/A dup=2 drop=0 speed=1.08x    frame= 6022 fps= 27 q=30.0 size=N/A time=00:04:01.11 bitrate=N/A dup=2 drop=0 speed=1.08x    frame= 6068 fps= 27 q=31.0 size=N/A time=00:04:02.85 bitrate=N/A dup=2 drop=0 speed=1.09x    frame= 6114 fps= 27 q=32.0 size=N/A time=00:04:04.80 bitrate=N/A dup=2 drop=0 speed=1.09x    [hls @ 0000020dee770740] Opening 'C:\xampp\htdocs\iptv\m3u/cc384c68ad503482fb24e6d1e3b512ae4.ts' for writing
[hls @ 0000020dee770740] Opening 'C:\xampp\htdocs\iptv\m3u/cc384c68ad503482fb24e6d1e3b512ae.m3u8.tmp' for writing
frame= 6157 fps= 27 q=34.0 size=N/A time=00:04:06.45 bitrate=N/A dup=2 drop=0 speed= 1.1x    frame= 6205 fps= 28 q=30.0 size=N/A time=00:04:08.47 bitrate=N/A dup=2 drop=0 speed= 1.1x    [http @ 0000020dee9c9800] Opening 'http://83.149.84.164:25461/live/server35/server3535/89.m3u8?token=TBEOVUNZG1xBAAZXA1JTAFVXCggFCAcGBVJRBQZRBVUEUl4FUQRcVAEVGRERRxRdV1tnWFQaCw0JGEFBQARHaF5XRA4SAg1SVgQXH0BHD1VTFAIBHBpBXFQWWRYLVg0GBRFKFlVJTQMRWVRfPVcDTl9VXRMKVkRZXBhBW10+UVJaUghQEgsbVkEbF1oRQ0QCWENUXRwaU1xERgJAVkMPFQUHUAMSHRsFDEJbRxBKRAIUYmoTHBpUTURRDUdaDlsVDRELB0UJG0pBXkZsEFYVTERTWVxVShMPEgRBGBEMVE9oUAlaXlRaEgpYW0BACUQJFBoaXF9WWEFfRjxEWgUXDRULUQMGABsb' for reading
[hls @ 0000020dede5ea00] Opening 'http://83.149.84.164:25461/live/server35/server3535/89.m3u8?token=TBEOVUNZG1xBAAZXA1JTAFVXCggFCAcGBVJRBQZRBVUEUl4FUQRcVAEVGRERRxRdV1tnWFQaCw0JGEFBQARHaF5XRA4SAg1SVgQXH0BHD1VTFAIBHBpBXFQWWRYLVg0GBRFKFlVJTQMRWVRfPVcDTl9VXRMKVkRZXBhBW10+UVJaUghQEgsbVkEbF1oRQ0QCWENUXRwaU1xERgJAVkMPFQUHUAMSHRsFDEJbRxBKRAIUYmoTHBpUTURRDUdaDlsVDRELB0UJG0pBXkZsEFYVTERTWVxVShMPEgRBGBEMVE9oUAlaXlRaEgpYW0BACUQJFBoaXF9WWEFfRjxEWgUXDRULUQMGABsb' for reading
[hls @ 0000020dede5ea00] Skip ('#EXT-X-VERSION:3')
[hls @ 0000020dede5ea00] Skip ('#EXT-X-ALLOW-CACHE:YES')
[http @ 0000020df0f94a80] Opening 'http://83.149.84.164:25461/hlsr/TBEOVUNZG1xBAAZXA1JTAFVXCggFCAcGBVJRBQZRBVUEUl4FUQRcVAEVGRERRxRdV1tnWFQaCw0JGEFBQARHaF5XRA4SAg1SVgQXH0BHD1VTFAIBHBpBXFQWWRYLVg0GBRFKFlVJTQMRWVRfPVcDTl9VXRMKVkRZXBhBW10+UVJaUghQEgsbVkEbF1oRQ0QCWENUXRwaU1xERgJAVkMPFQUHUAMSHRsFDEJbRxBKRAIUYmoTHBpUTURRDUdaDlsVDRELB0UJG0pBXkZsEFYVTERTWVxVShMPEgRBGBEMVE9oUAlaXlRaEgpYW0BACUQJFBoaXF9WWEFfRjxEWgUXDRULUQMGABsb/server35/server3535/89/f5e08ce00c882cdf3f0f2989670dbc02/89_1997.ts' for reading
[http @ 0000020dede78640] Opening 'http://83.149.84.164:25461/hlsr/TBEOVUNZG1xBAAZXA1JTAFVXCggFCAcGBVJRBQZRBVUEUl4FUQRcVAEVGRERRxRdV1tnWFQaCw0JGEFBQARHaF5XRA4SAg1SVgQXH0BHD1VTFAIBHBpBXFQWWRYLVg0GBRFKFlVJTQMRWVRfPVcDTl9VXRMKVkRZXBhBW10+UVJaUghQEgsbVkEbF1oRQ0QCWENUXRwaU1xERgJAVkMPFQUHUAMSHRsFDEJbRxBKRAIUYmoTHBpUTURRDUdaDlsVDRELB0UJG0pBXkZsEFYVTERTWVxVShMPEgRBGBEMVE9oUAlaXlRaEgpYW0BACUQJFBoaXF9WWEFfRjxEWgUXDRULUQMGABsb/server35/server3535/89/e3723d6f588ab1167791e28ba5487c70/89_1998.ts' for reading
[hls @ 0000020dede5ea00] Opening 'http://83.149.84.164:25461/hlsr/TBEOVUNZG1xBAAZXA1JTAFVXCggFCAcGBVJRBQZRBVUEUl4FUQRcVAEVGRERRxRdV1tnWFQaCw0JGEFBQARHaF5XRA4SAg1SVgQXH0BHD1VTFAIBHBpBXFQWWRYLVg0GBRFKFlVJTQMRWVRfPVcDTl9VXRMKVkRZXBhBW10+UVJaUghQEgsbVkEbF1oRQ0QCWENUXRwaU1xERgJAVkMPFQUHUAMSHRsFDEJbRxBKRAIUYmoTHBpUTURRDUdaDlsVDRELB0UJG0pBXkZsEFYVTERTWVxVShMPEgRBGBEMVE9oUAlaXlRaEgpYW0BACUQJFBoaXF9WWEFfRjxEWgUXDRULUQMGABsb/server35/server3535/89/e3723d6f588ab1167791e28ba5487c70/89_1998.ts' for reading
frame= 6241 fps= 27 q=33.0 size=N/A time=00:04:09.96 bitrate=N/A dup=2 drop=0 speed=1.07x    frame= 6280 fps= 27 q=34.0 size=N/A time=00:04:11.44 bitrate=N/A dup=2 drop=0 speed=1.08x    frame= 6321 fps= 27 q=34.0 size=N/A time=00:04:13.09 bitrate=N/A dup=2 drop=0 speed=1.08x    frame= 6362 fps= 27 q=34.0 size=N/A time=00:04:14.63 bitrate=N/A dup=2 drop=0 speed=1.09x    [hls @ 0000020dee770740] Opening 'C:\xampp\htdocs\iptv\m3u/cc384c68ad503482fb24e6d1e3b512ae5.ts' for writing
[hls @ 0000020dee770740] Opening 'C:\xampp\htdocs\iptv\m3u/cc384c68ad503482fb24e6d1e3b512ae.m3u8.tmp' for writing
frame= 6407 fps= 27 q=34.0 size=N/A time=00:04:16.58 bitrate=N/A dup=2 drop=0 speed=1.09x    frame= 6418 fps= 27 q=33.0 size=N/A time=00:04:16.83 bitrate=N/A dup=2 drop=0 speed=1.09x    frame= 6470 fps= 27 q=32.0 size=N/A time=00:04:18.92 bitrate=N/A dup=2 drop=0 speed= 1.1x    frame= 6507 fps= 27 q=30.0 size=N/A time=00:04:20.41 bitrate=N/A dup=2 drop=0 speed= 1.1x    frame= 6542 fps= 28 q=29.0 size=N/A time=00:04:21.82 bitrate=N/A dup=2 drop=0 speed= 1.1x    frame= 6587 fps= 28 q=30.0 size=N/A time=00:04:23.63 bitrate=N/A dup=2 drop=0 speed=1.11x    frame= 6631 fps= 28 q=32.0 size=N/A time=00:04:25.33 bitrate=N/A dup=2 drop=0 speed=1.11x    [hls @ 0000020dee770740] Opening 'C:\xampp\htdocs\iptv\m3u/cc384c68ad503482fb24e6d1e3b512ae6.ts' for writing
[hls @ 0000020dee770740] Opening 'C:\xampp\htdocs\iptv\m3u/cc384c68ad503482fb24e6d1e3b512ae.m3u8.tmp' for writing
frame= 6676 fps= 28 q=35.0 size=N/A time=00:04:27.33 bitrate=N/A dup=2 drop=0 speed=1.12x    frame= 6719 fps= 28 q=31.0 size=N/A time=00:04:28.93 bitrate=N/A dup=2 drop=0 speed=1.12x    [http @ 0000020dee9c9800] Opening 'http://83.149.84.164:25461/live/server35/server3535/89.m3u8?token=TBEOVUNZG1xBAAZXA1JTAFVXCggFCAcGBVJRBQZRBVUEUl4FUQRcVAEVGRERRxRdV1tnWFQaCw0JGEFBQARHaF5XRA4SAg1SVgQXH0BHD1VTFAIBHBpBXFQWWRYLVg0GBRFKFlVJTQMRWVRfPVcDTl9VXRMKVkRZXBhBW10+UVJaUghQEgsbVkEbF1oRQ0QCWENUXRwaU1xERgJAVkMPFQUHUAMSHRsFDEJbRxBKRAIUYmoTHBpUTURRDUdaDlsVDRELB0UJG0pBXkZsEFYVTERTWVxVShMPEgRBGBEMVE9oUAlaXlRaEgpYW0BACUQJFBoaXF9WWEFfRjxEWgUXDRULUQMGABsb' for reading
[hls @ 0000020dede5ea00] Opening 'http://83.149.84.164:25461/live/server35/server3535/89.m3u8?token=TBEOVUNZG1xBAAZXA1JTAFVXCggFCAcGBVJRBQZRBVUEUl4FUQRcVAEVGRERRxRdV1tnWFQaCw0JGEFBQARHaF5XRA4SAg1SVgQXH0BHD1VTFAIBHBpBXFQWWRYLVg0GBRFKFlVJTQMRWVRfPVcDTl9VXRMKVkRZXBhBW10+UVJaUghQEgsbVkEbF1oRQ0QCWENUXRwaU1xERgJAVkMPFQUHUAMSHRsFDEJbRxBKRAIUYmoTHBpUTURRDUdaDlsVDRELB0UJG0pBXkZsEFYVTERTWVxVShMPEgRBGBEMVE9oUAlaXlRaEgpYW0BACUQJFBoaXF9WWEFfRjxEWgUXDRULUQMGABsb' for reading
[hls @ 0000020dede5ea00] Skip ('#EXT-X-VERSION:3')
[hls @ 0000020dede5ea00] Skip ('#EXT-X-ALLOW-CACHE:YES')
[hls @ 0000020dede5ea00] Opening 'http://83.149.84.164:25461/hlsr/TBEOVUNZG1xBAAZXA1JTAFVXCggFCAcGBVJRBQZRBVUEUl4FUQRcVAEVGRERRxRdV1tnWFQaCw0JGEFBQARHaF5XRA4SAg1SVgQXH0BHD1VTFAIBHBpBXFQWWRYLVg0GBRFKFlVJTQMRWVRfPVcDTl9VXRMKVkRZXBhBW10+UVJaUghQEgsbVkEbF1oRQ0QCWENUXRwaU1xERgJAVkMPFQUHUAMSHRsFDEJbRxBKRAIUYmoTHBpUTURRDUdaDlsVDRELB0UJG0pBXkZsEFYVTERTWVxVShMPEgRBGBEMVE9oUAlaXlRaEgpYW0BACUQJFBoaXF9WWEFfRjxEWgUXDRULUQMGABsb/server35/server3535/89/c7871d0e87f6ee0c4197aea100543965/89_1999.ts' for reading
frame= 6741 fps= 28 q=29.0 size=N/A time=00:04:29.95 bitrate=N/A dup=2 drop=0 speed=1.11x    frame= 6773 fps= 28 q=31.0 size=N/A time=00:04:31.11 bitrate=N/A dup=2 drop=0 speed=1.11x    [hls @ 0000020dee770740] Opening 'C:\xampp\htdocs\iptv\m3u/cc384c68ad503482fb24e6d1e3b512ae7.ts' for writing
[hls @ 0000020dee770740] Opening 'C:\xampp\htdocs\iptv\m3u/cc384c68ad503482fb24e6d1e3b512ae.m3u8.tmp' for writing
frame= 6821 fps= 28 q=35.0 size=N/A time=00:04:33.08 bitrate=N/A dup=2 drop=0 speed=1.12x    frame= 6868 fps= 28 q=35.0 size=N/A time=00:04:34.85 bitrate=N/A dup=2 drop=0 speed=1.12x    frame= 6914 fps= 28 q=35.0 size=N/A time=00:04:36.78 bitrate=N/A dup=2 drop=0 speed=1.13x    frame= 6950 fps= 28 q=34.0 size=N/A time=00:04:38.17 bitrate=N/A dup=2 drop=0 speed=1.13x    [http @ 0000020dee9c9800] Opening 'http://83.149.84.164:25461/live/server35/server3535/89.m3u8?token=TBEOVUNZG1xBAAZXA1JTAFVXCggFCAcGBVJRBQZRBVUEUl4FUQRcVAEVGRERRxRdV1tnWFQaCw0JGEFBQARHaF5XRA4SAg1SVgQXH0BHD1VTFAIBHBpBXFQWWRYLVg0GBRFKFlVJTQMRWVRfPVcDTl9VXRMKVkRZXBhBW10+UVJaUghQEgsbVkEbF1oRQ0QCWENUXRwaU1xERgJAVkMPFQUHUAMSHRsFDEJbRxBKRAIUYmoTHBpUTURRDUdaDlsVDRELB0UJG0pBXkZsEFYVTERTWVxVShMPEgRBGBEMVE9oUAlaXlRaEgpYW0BACUQJFBoaXF9WWEFfRjxEWgUXDRULUQMGABsb' for reading
[hls @ 0000020dede5ea00] Opening 'http://83.149.84.164:25461/live/server35/server3535/89.m3u8?token=TBEOVUNZG1xBAAZXA1JTAFVXCggFCAcGBVJRBQZRBVUEUl4FUQRcVAEVGRERRxRdV1tnWFQaCw0JGEFBQARHaF5XRA4SAg1SVgQXH0BHD1VTFAIBHBpBXFQWWRYLVg0GBRFKFlVJTQMRWVRfPVcDTl9VXRMKVkRZXBhBW10+UVJaUghQEgsbVkEbF1oRQ0QCWENUXRwaU1xERgJAVkMPFQUHUAMSHRsFDEJbRxBKRAIUYmoTHBpUTURRDUdaDlsVDRELB0UJG0pBXkZsEFYVTERTWVxVShMPEgRBGBEMVE9oUAlaXlRaEgpYW0BACUQJFBoaXF9WWEFfRjxEWgUXDRULUQMGABsb' for reading
[hls @ 0000020dede5ea00] Skip ('#EXT-X-VERSION:3')
[hls @ 0000020dede5ea00] Skip ('#EXT-X-ALLOW-CACHE:YES')
[http @ 0000020dede78200] Opening 'http://83.149.84.164:25461/hlsr/TBEOVUNZG1xBAAZXA1JTAFVXCggFCAcGBVJRBQZRBVUEUl4FUQRcVAEVGRERRxRdV1tnWFQaCw0JGEFBQARHaF5XRA4SAg1SVgQXH0BHD1VTFAIBHBpBXFQWWRYLVg0GBRFKFlVJTQMRWVRfPVcDTl9VXRMKVkRZXBhBW10+UVJaUghQEgsbVkEbF1oRQ0QCWENUXRwaU1xERgJAVkMPFQUHUAMSHRsFDEJbRxBKRAIUYmoTHBpUTURRDUdaDlsVDRELB0UJG0pBXkZsEFYVTERTWVxVShMPEgRBGBEMVE9oUAlaXlRaEgpYW0BACUQJFBoaXF9WWEFfRjxEWgUXDRULUQMGABsb/server35/server3535/89/f0827619e98fe57023f8590e3064a4f6/89_2000.ts' for reading
frame= 6991 fps= 28 q=33.0 size=N/A time=00:04:39.96 bitrate=N/A dup=2 drop=0 speed= 1.1x    frame= 7019 fps= 28 q=34.0 size=N/A time=00:04:41.03 bitrate=N/A dup=2 drop=0 speed=1.11x    frame= 7045 fps= 28 q=37.0 size=N/A time=00:04:41.95 bitrate=N/A dup=2 drop=0 speed=1.11x    [hls @ 0000020dee770740] Opening 'C:\xampp\htdocs\iptv\m3u/cc384c68ad503482fb24e6d1e3b512ae0.ts' for writing
[hls @ 0000020dee770740] Opening 'C:\xampp\htdocs\iptv\m3u/cc384c68ad503482fb24e6d1e3b512ae.m3u8.tmp' for writing
frame= 7090 fps= 28 q=34.0 size=N/A time=00:04:43.72 bitrate=N/A dup=2 drop=0 speed=1.11x    frame= 7137 fps= 28 q=32.0 size=N/A time=00:04:45.65 bitrate=N/A dup=2 drop=0 speed=1.12x    frame= 7177 fps= 28 q=36.0 size=N/A time=00:04:47.18 bitrate=N/A dup=2 drop=0 speed=1.12x    frame= 7217 fps= 28 q=34.0 size=N/A time=00:04:48.90 bitrate=N/A dup=2 drop=0 speed=1.13x    [http @ 0000020dee9c9800] Opening 'http://83.149.84.164:25461/live/server35/server3535/89.m3u8?token=TBEOVUNZG1xBAAZXA1JTAFVXCggFCAcGBVJRBQZRBVUEUl4FUQRcVAEVGRERRxRdV1tnWFQaCw0JGEFBQARHaF5XRA4SAg1SVgQXH0BHD1VTFAIBHBpBXFQWWRYLVg0GBRFKFlVJTQMRWVRfPVcDTl9VXRMKVkRZXBhBW10+UVJaUghQEgsbVkEbF1oRQ0QCWENUXRwaU1xERgJAVkMPFQUHUAMSHRsFDEJbRxBKRAIUYmoTHBpUTURRDUdaDlsVDRELB0UJG0pBXkZsEFYVTERTWVxVShMPEgRBGBEMVE9oUAlaXlRaEgpYW0BACUQJFBoaXF9WWEFfRjxEWgUXDRULUQMGABsb' for reading
[hls @ 0000020dede5ea00] Opening 'http://83.149.84.164:25461/live/server35/server3535/89.m3u8?token=TBEOVUNZG1xBAAZXA1JTAFVXCggFCAcGBVJRBQZRBVUEUl4FUQRcVAEVGRERRxRdV1tnWFQaCw0JGEFBQARHaF5XRA4SAg1SVgQXH0BHD1VTFAIBHBpBXFQWWRYLVg0GBRFKFlVJTQMRWVRfPVcDTl9VXRMKVkRZXBhBW10+UVJaUghQEgsbVkEbF1oRQ0QCWENUXRwaU1xERgJAVkMPFQUHUAMSHRsFDEJbRxBKRAIUYmoTHBpUTURRDUdaDlsVDRELB0UJG0pBXkZsEFYVTERTWVxVShMPEgRBGBEMVE9oUAlaXlRaEgpYW0BACUQJFBoaXF9WWEFfRjxEWgUXDRULUQMGABsb' for reading
[hls @ 0000020dede5ea00] Skip ('#EXT-X-VERSION:3')
[hls @ 0000020dede5ea00] Skip ('#EXT-X-ALLOW-CACHE:YES')
[http @ 0000020dede78200] Opening 'http://83.149.84.164:25461/hlsr/TBEOVUNZG1xBAAZXA1JTAFVXCggFCAcGBVJRBQZRBVUEUl4FUQRcVAEVGRERRxRdV1tnWFQaCw0JGEFBQARHaF5XRA4SAg1SVgQXH0BHD1VTFAIBHBpBXFQWWRYLVg0GBRFKFlVJTQMRWVRfPVcDTl9VXRMKVkRZXBhBW10+UVJaUghQEgsbVkEbF1oRQ0QCWENUXRwaU1xERgJAVkMPFQUHUAMSHRsFDEJbRxBKRAIUYmoTHBpUTURRDUdaDlsVDRELB0UJG0pBXkZsEFYVTERTWVxVShMPEgRBGBEMVE9oUAlaXlRaEgpYW0BACUQJFBoaXF9WWEFfRjxEWgUXDRULUQMGABsb/server35/server3535/89/d15ec350b96df3a372d8002f98ca80cf/89_2001.ts' for reading
frame= 7241 fps= 27 q=31.0 size=N/A time=00:04:49.94 bitrate=N/A dup=2 drop=0 speed= 1.1x    frame= 7272 fps= 28 q=31.0 size=N/A time=00:04:51.10 bitrate=N/A dup=2 drop=0 speed= 1.1x    [hls @ 0000020dee770740] Opening 'C:\xampp\htdocs\iptv\m3u/cc384c68ad503482fb24e6d1e3b512ae1.ts' for writing
[hls @ 0000020dee770740] Opening 'C:\xampp\htdocs\iptv\m3u/cc384c68ad503482fb24e6d1e3b512ae.m3u8.tmp' for writing
frame= 7321 fps= 28 q=33.0 size=N/A time=00:04:53.08 bitrate=N/A dup=2 drop=0 speed=1.11x    frame= 7351 fps= 28 q=31.0 size=N/A time=00:04:54.24 bitrate=N/A dup=2 drop=0 speed=1.11x    frame= 7396 fps= 28 q=31.0 size=N/A time=00:04:56.10 bitrate=N/A dup=2 drop=0 speed=1.11x    frame= 7440 fps= 28 q=32.0 size=N/A time=00:04:57.77 bitrate=N/A dup=2 drop=0 speed=1.12x    frame= 7485 fps= 28 q=38.0 size=N/A time=00:04:59.63 bitrate=N/A dup=2 drop=0 speed=1.12x    [http @ 0000020deebb6bc0] Opening 'http://83.149.84.164:25461/live/server35/server3535/89.m3u8?token=TBEOVUNZG1xBAAZXA1JTAFVXCggFCAcGBVJRBQZRBVUEUl4FUQRcVAEVGRERRxRdV1tnWFQaCw0JGEFBQARHaF5XRA4SAg1SVgQXH0BHD1VTFAIBHBpBXFQWWRYLVg0GBRFKFlVJTQMRWVRfPVcDTl9VXRMKVkRZXBhBW10+UVJaUghQEgsbVkEbF1oRQ0QCWENUXRwaU1xERgJAVkMPFQUHUAMSHRsFDEJbRxBKRAIUYmoTHBpUTURRDUdaDlsVDRELB0UJG0pBXkZsEFYVTERTWVxVShMPEgRBGBEMVE9oUAlaXlRaEgpYW0BACUQJFBoaXF9WWEFfRjxEWgUXDRULUQMGABsb' for reading
[hls @ 0000020dede5ea00] Opening 'http://83.149.84.164:25461/live/server35/server3535/89.m3u8?token=TBEOVUNZG1xBAAZXA1JTAFVXCggFCAcGBVJRBQZRBVUEUl4FUQRcVAEVGRERRxRdV1tnWFQaCw0JGEFBQARHaF5XRA4SAg1SVgQXH0BHD1VTFAIBHBpBXFQWWRYLVg0GBRFKFlVJTQMRWVRfPVcDTl9VXRMKVkRZXBhBW10+UVJaUghQEgsbVkEbF1oRQ0QCWENUXRwaU1xERgJAVkMPFQUHUAMSHRsFDEJbRxBKRAIUYmoTHBpUTURRDUdaDlsVDRELB0UJG0pBXkZsEFYVTERTWVxVShMPEgRBGBEMVE9oUAlaXlRaEgpYW0BACUQJFBoaXF9WWEFfRjxEWgUXDRULUQMGABsb' for reading
[hls @ 0000020dede5ea00] Skip ('#EXT-X-VERSION:3')
[hls @ 0000020dede5ea00] Skip ('#EXT-X-ALLOW-CACHE:YES')
[http @ 0000020dede78200] Opening 'http://83.149.84.164:25461/hlsr/TBEOVUNZG1xBAAZXA1JTAFVXCggFCAcGBVJRBQZRBVUEUl4FUQRcVAEVGRERRxRdV1tnWFQaCw0JGEFBQARHaF5XRA4SAg1SVgQXH0BHD1VTFAIBHBpBXFQWWRYLVg0GBRFKFlVJTQMRWVRfPVcDTl9VXRMKVkRZXBhBW10+UVJaUghQEgsbVkEbF1oRQ0QCWENUXRwaU1xERgJAVkMPFQUHUAMSHRsFDEJbRxBKRAIUYmoTHBpUTURRDUdaDlsVDRELB0UJG0pBXkZsEFYVTERTWVxVShMPEgRBGBEMVE9oUAlaXlRaEgpYW0BACUQJFBoaXF9WWEFfRjxEWgUXDRULUQMGABsb/server35/server3535/89/c53c4351246a9d9159e82205d59c5bf7/89_2002.ts' for reading
frame= 7491 fps= 27 q=37.0 size=N/A time=00:04:59.95 bitrate=N/A dup=2 drop=0 speed=1.09x    frame= 7525 fps= 27 q=34.0 size=N/A time=00:05:01.30 bitrate=N/A dup=2 drop=0 speed= 1.1x    [hls @ 0000020dee770740] Opening 'C:\xampp\htdocs\iptv\m3u/cc384c68ad503482fb24e6d1e3b512ae2.ts' for writing
[hls @ 0000020dee770740] Opening 'C:\xampp\htdocs\iptv\m3u/cc384c68ad503482fb24e6d1e3b512ae.m3u8.tmp' for writing
frame= 7573 fps= 28 q=32.0 size=N/A time=00:05:03.04 bitrate=N/A dup=2 drop=0 speed= 1.1x    frame= 7623 fps= 28 q=37.0 size=N/A time=00:05:05.06 bitrate=N/A dup=2 drop=0 speed=1.11x    frame= 7647 fps= 28 q=35.0 size=N/A time=00:05:06.10 bitrate=N/A dup=2 drop=0 speed=1.11x    frame= 7692 fps= 28 q=38.0 size=N/A time=00:05:07.94 bitrate=N/A dup=2 drop=0 speed=1.11x    frame= 7729 fps= 28 q=36.0 size=N/A time=00:05:09.38 bitrate=N/A dup=2 drop=0 speed=1.12x    [http @ 0000020deebb6bc0] Opening 'http://83.149.84.164:25461/live/server35/server3535/89.m3u8?token=TBEOVUNZG1xBAAZXA1JTAFVXCggFCAcGBVJRBQZRBVUEUl4FUQRcVAEVGRERRxRdV1tnWFQaCw0JGEFBQARHaF5XRA4SAg1SVgQXH0BHD1VTFAIBHBpBXFQWWRYLVg0GBRFKFlVJTQMRWVRfPVcDTl9VXRMKVkRZXBhBW10+UVJaUghQEgsbVkEbF1oRQ0QCWENUXRwaU1xERgJAVkMPFQUHUAMSHRsFDEJbRxBKRAIUYmoTHBpUTURRDUdaDlsVDRELB0UJG0pBXkZsEFYVTERTWVxVShMPEgRBGBEMVE9oUAlaXlRaEgpYW0BACUQJFBoaXF9WWEFfRjxEWgUXDRULUQMGABsb' for reading
[hls @ 0000020dede5ea00] Opening 'http://83.149.84.164:25461/live/server35/server3535/89.m3u8?token=TBEOVUNZG1xBAAZXA1JTAFVXCggFCAcGBVJRBQZRBVUEUl4FUQRcVAEVGRERRxRdV1tnWFQaCw0JGEFBQARHaF5XRA4SAg1SVgQXH0BHD1VTFAIBHBpBXFQWWRYLVg0GBRFKFlVJTQMRWVRfPVcDTl9VXRMKVkRZXBhBW10+UVJaUghQEgsbVkEbF1oRQ0QCWENUXRwaU1xERgJAVkMPFQUHUAMSHRsFDEJbRxBKRAIUYmoTHBpUTURRDUdaDlsVDRELB0UJG0pBXkZsEFYVTERTWVxVShMPEgRBGBEMVE9oUAlaXlRaEgpYW0BACUQJFBoaXF9WWEFfRjxEWgUXDRULUQMGABsb' for reading
[hls @ 0000020dede5ea00] Skip ('#EXT-X-VERSION:3')
[hls @ 0000020dede5ea00] Skip ('#EXT-X-ALLOW-CACHE:YES')
[http @ 0000020dede78200] Opening 'http://83.149.84.164:25461/hlsr/TBEOVUNZG1xBAAZXA1JTAFVXCggFCAcGBVJRBQZRBVUEUl4FUQRcVAEVGRERRxRdV1tnWFQaCw0JGEFBQARHaF5XRA4SAg1SVgQXH0BHD1VTFAIBHBpBXFQWWRYLVg0GBRFKFlVJTQMRWVRfPVcDTl9VXRMKVkRZXBhBW10+UVJaUghQEgsbVkEbF1oRQ0QCWENUXRwaU1xERgJAVkMPFQUHUAMSHRsFDEJbRxBKRAIUYmoTHBpUTURRDUdaDlsVDRELB0UJG0pBXkZsEFYVTERTWVxVShMPEgRBGBEMVE9oUAlaXlRaEgpYW0BACUQJFBoaXF9WWEFfRjxEWgUXDRULUQMGABsb/server35/server3535/89/51842af1a0b680e33947d395bb07994e/89_2003.ts' for reading
frame= 7741 fps= 27 q=31.0 size=N/A time=00:05:09.96 bitrate=N/A dup=2 drop=0 speed=1.09x    frame= 7771 fps= 27 q=32.0 size=N/A time=00:05:11.00 bitrate=N/A dup=2 drop=0 speed=1.09x    [hls @ 0000020dee770740] Opening 'C:\xampp\htdocs\iptv\m3u/cc384c68ad503482fb24e6d1e3b512ae3.ts' for writing
[hls @ 0000020dee770740] Opening 'C:\xampp\htdocs\iptv\m3u/cc384c68ad503482fb24e6d1e3b512ae.m3u8.tmp' for writing
frame= 7814 fps= 27 q=34.0 size=N/A time=00:05:12.79 bitrate=N/A dup=2 drop=0 speed= 1.1x    frame= 7851 fps= 27 q=31.0 size=N/A time=00:05:14.25 bitrate=N/A dup=2 drop=0 speed= 1.1x    frame= 7896 fps= 28 q=30.0 size=N/A time=00:05:16.07 bitrate=N/A dup=2 drop=0 speed= 1.1x    frame= 7941 fps= 28 q=30.0 size=N/A time=00:05:17.92 bitrate=N/A dup=2 drop=0 speed=1.11x    frame= 7955 fps= 28 q=31.0 size=N/A time=00:05:18.41 bitrate=N/A dup=2 drop=0 speed=1.11x    [http @ 0000020deebb6bc0] Opening 'http://83.149.84.164:25461/live/server35/server3535/89.m3u8?token=TBEOVUNZG1xBAAZXA1JTAFVXCggFCAcGBVJRBQZRBVUEUl4FUQRcVAEVGRERRxRdV1tnWFQaCw0JGEFBQARHaF5XRA4SAg1SVgQXH0BHD1VTFAIBHBpBXFQWWRYLVg0GBRFKFlVJTQMRWVRfPVcDTl9VXRMKVkRZXBhBW10+UVJaUghQEgsbVkEbF1oRQ0QCWENUXRwaU1xERgJAVkMPFQUHUAMSHRsFDEJbRxBKRAIUYmoTHBpUTURRDUdaDlsVDRELB0UJG0pBXkZsEFYVTERTWVxVShMPEgRBGBEMVE9oUAlaXlRaEgpYW0BACUQJFBoaXF9WWEFfRjxEWgUXDRULUQMGABsb' for reading
[hls @ 0000020dede5ea00] Opening 'http://83.149.84.164:25461/live/server35/server3535/89.m3u8?token=TBEOVUNZG1xBAAZXA1JTAFVXCggFCAcGBVJRBQZRBVUEUl4FUQRcVAEVGRERRxRdV1tnWFQaCw0JGEFBQARHaF5XRA4SAg1SVgQXH0BHD1VTFAIBHBpBXFQWWRYLVg0GBRFKFlVJTQMRWVRfPVcDTl9VXRMKVkRZXBhBW10+UVJaUghQEgsbVkEbF1oRQ0QCWENUXRwaU1xERgJAVkMPFQUHUAMSHRsFDEJbRxBKRAIUYmoTHBpUTURRDUdaDlsVDRELB0UJG0pBXkZsEFYVTERTWVxVShMPEgRBGBEMVE9oUAlaXlRaEgpYW0BACUQJFBoaXF9WWEFfRjxEWgUXDRULUQMGABsb' for reading
[hls @ 0000020dede5ea00] Skip ('#EXT-X-VERSION:3')
[hls @ 0000020dede5ea00] Skip ('#EXT-X-ALLOW-CACHE:YES')
[http @ 0000020dede78200] Opening 'http://83.149.84.164:25461/hlsr/TBEOVUNZG1xBAAZXA1JTAFVXCggFCAcGBVJRBQZRBVUEUl4FUQRcVAEVGRERRxRdV1tnWFQaCw0JGEFBQARHaF5XRA4SAg1SVgQXH0BHD1VTFAIBHBpBXFQWWRYLVg0GBRFKFlVJTQMRWVRfPVcDTl9VXRMKVkRZXBhBW10+UVJaUghQEgsbVkEbF1oRQ0QCWENUXRwaU1xERgJAVkMPFQUHUAMSHRsFDEJbRxBKRAIUYmoTHBpUTURRDUdaDlsVDRELB0UJG0pBXkZsEFYVTERTWVxVShMPEgRBGBEMVE9oUAlaXlRaEgpYW0BACUQJFBoaXF9WWEFfRjxEWgUXDRULUQMGABsb/server35/server3535/89/34075a80ed2b3e0a5490a6bfbb51ff79/89_2004.ts' for reading
frame= 7991 fps= 27 q=30.0 size=N/A time=00:05:19.94 bitrate=N/A dup=2 drop=0 speed=1.09x    frame= 8017 fps= 27 q=38.0 size=N/A time=00:05:20.85 bitrate=N/A dup=2 drop=0 speed=1.09x    [hls @ 0000020dee770740] Opening 'C:\xampp\htdocs\iptv\m3u/cc384c68ad503482fb24e6d1e3b512ae4.ts' for writing
[hls @ 0000020dee770740] Opening 'C:\xampp\htdocs\iptv\m3u/cc384c68ad503482fb24e6d1e3b512ae.m3u8.tmp' for writing
frame= 8067 fps= 27 q=35.0 size=N/A time=00:05:22.96 bitrate=N/A dup=2 drop=0 speed=1.09x    frame= 8071 fps= 27 q=36.0 size=N/A time=00:05:22.96 bitrate=N/A dup=2 drop=0 speed=1.09x    frame= 8118 fps= 27 q=39.0 size=N/A time=00:05:24.96 bitrate=N/A dup=2 drop=0 speed= 1.1x    frame= 8166 fps= 27 q=38.0 size=N/A time=00:05:26.86 bitrate=N/A dup=2 drop=0 speed= 1.1x    frame= 8216 fps= 28 q=36.0 size=N/A time=00:05:28.77 bitrate=N/A dup=2 drop=0 speed= 1.1x    [http @ 0000020deebb6bc0] Opening 'http://83.149.84.164:25461/live/server35/server3535/89.m3u8?token=TBEOVUNZG1xBAAZXA1JTAFVXCggFCAcGBVJRBQZRBVUEUl4FUQRcVAEVGRERRxRdV1tnWFQaCw0JGEFBQARHaF5XRA4SAg1SVgQXH0BHD1VTFAIBHBpBXFQWWRYLVg0GBRFKFlVJTQMRWVRfPVcDTl9VXRMKVkRZXBhBW10+UVJaUghQEgsbVkEbF1oRQ0QCWENUXRwaU1xERgJAVkMPFQUHUAMSHRsFDEJbRxBKRAIUYmoTHBpUTURRDUdaDlsVDRELB0UJG0pBXkZsEFYVTERTWVxVShMPEgRBGBEMVE9oUAlaXlRaEgpYW0BACUQJFBoaXF9WWEFfRjxEWgUXDRULUQMGABsb' for reading
[hls @ 0000020dede5ea00] Opening 'http://83.149.84.164:25461/live/server35/server3535/89.m3u8?token=TBEOVUNZG1xBAAZXA1JTAFVXCggFCAcGBVJRBQZRBVUEUl4FUQRcVAEVGRERRxRdV1tnWFQaCw0JGEFBQARHaF5XRA4SAg1SVgQXH0BHD1VTFAIBHBpBXFQWWRYLVg0GBRFKFlVJTQMRWVRfPVcDTl9VXRMKVkRZXBhBW10+UVJaUghQEgsbVkEbF1oRQ0QCWENUXRwaU1xERgJAVkMPFQUHUAMSHRsFDEJbRxBKRAIUYmoTHBpUTURRDUdaDlsVDRELB0UJG0pBXkZsEFYVTERTWVxVShMPEgRBGBEMVE9oUAlaXlRaEgpYW0BACUQJFBoaXF9WWEFfRjxEWgUXDRULUQMGABsb' for reading
[hls @ 0000020dede5ea00] Skip ('#EXT-X-VERSION:3')
[hls @ 0000020dede5ea00] Skip ('#EXT-X-ALLOW-CACHE:YES')
[http @ 0000020dede78200] Opening 'http://83.149.84.164:25461/hlsr/TBEOVUNZG1xBAAZXA1JTAFVXCggFCAcGBVJRBQZRBVUEUl4FUQRcVAEVGRERRxRdV1tnWFQaCw0JGEFBQARHaF5XRA4SAg1SVgQXH0BHD1VTFAIBHBpBXFQWWRYLVg0GBRFKFlVJTQMRWVRfPVcDTl9VXRMKVkRZXBhBW10+UVJaUghQEgsbVkEbF1oRQ0QCWENUXRwaU1xERgJAVkMPFQUHUAMSHRsFDEJbRxBKRAIUYmoTHBpUTURRDUdaDlsVDRELB0UJG0pBXkZsEFYVTERTWVxVShMPEgRBGBEMVE9oUAlaXlRaEgpYW0BACUQJFBoaXF9WWEFfRjxEWgUXDRULUQMGABsb/server35/server3535/89/c29a978be8bf41a13fd0122a9df804ed/89_2005.ts' for reading
frame= 8241 fps= 27 q=34.0 size=N/A time=00:05:29.95 bitrate=N/A dup=2 drop=0 speed=1.08x    frame= 8268 fps= 27 q=41.0 size=N/A time=00:05:30.88 bitrate=N/A dup=2 drop=0 speed=1.08x    [hls @ 0000020dee770740] Opening 'C:\xampp\htdocs\iptv\m3u/cc384c68ad503482fb24e6d1e3b512ae5.ts' for writing
[hls @ 0000020dee770740] Opening 'C:\xampp\htdocs\iptv\m3u/cc384c68ad503482fb24e6d1e3b512ae.m3u8.tmp' for writing
frame= 8303 fps= 27 q=33.0 size=N/A time=00:05:32.27 bitrate=N/A dup=2 drop=0 speed=1.09x    frame= 8336 fps= 27 q=32.0 size=N/A time=00:05:33.60 bitrate=N/A dup=2 drop=0 speed=1.09x    frame= 8367 fps= 27 q=35.0 size=N/A time=00:05:34.94 bitrate=N/A dup=2 drop=0 speed=1.09x    frame= 8395 fps= 27 q=31.0 size=N/A time=00:05:35.92 bitrate=N/A dup=2 drop=0 speed=1.09x    frame= 8417 fps= 27 q=31.0 size=N/A time=00:05:36.87 bitrate=N/A dup=2 drop=0 speed=1.09x    frame= 8443 fps= 27 q=30.0 size=N/A time=00:05:37.92 bitrate=N/A dup=2 drop=0 speed= 1.1x    frame= 8467 fps= 27 q=33.0 size=N/A time=00:05:38.91 bitrate=N/A dup=2 drop=0 speed= 1.1x    frame= 8489 fps= 27 q=33.0 size=N/A time=00:05:39.84 bitrate=N/A dup=2 drop=0 speed= 1.1x    [http @ 0000020deebb6bc0] Opening 'http://83.149.84.164:25461/live/server35/server3535/89.m3u8?token=TBEOVUNZG1xBAAZXA1JTAFVXCggFCAcGBVJRBQZRBVUEUl4FUQRcVAEVGRERRxRdV1tnWFQaCw0JGEFBQARHaF5XRA4SAg1SVgQXH0BHD1VTFAIBHBpBXFQWWRYLVg0GBRFKFlVJTQMRWVRfPVcDTl9VXRMKVkRZXBhBW10+UVJaUghQEgsbVkEbF1oRQ0QCWENUXRwaU1xERgJAVkMPFQUHUAMSHRsFDEJbRxBKRAIUYmoTHBpUTURRDUdaDlsVDRELB0UJG0pBXkZsEFYVTERTWVxVShMPEgRBGBEMVE9oUAlaXlRaEgpYW0BACUQJFBoaXF9WWEFfRjxEWgUXDRULUQMGABsb' for reading
[hls @ 0000020dede5ea00] Opening 'http://83.149.84.164:25461/live/server35/server3535/89.m3u8?token=TBEOVUNZG1xBAAZXA1JTAFVXCggFCAcGBVJRBQZRBVUEUl4FUQRcVAEVGRERRxRdV1tnWFQaCw0JGEFBQARHaF5XRA4SAg1SVgQXH0BHD1VTFAIBHBpBXFQWWRYLVg0GBRFKFlVJTQMRWVRfPVcDTl9VXRMKVkRZXBhBW10+UVJaUghQEgsbVkEbF1oRQ0QCWENUXRwaU1xERgJAVkMPFQUHUAMSHRsFDEJbRxBKRAIUYmoTHBpUTURRDUdaDlsVDRELB0UJG0pBXkZsEFYVTERTWVxVShMPEgRBGBEMVE9oUAlaXlRaEgpYW0BACUQJFBoaXF9WWEFfRjxEWgUXDRULUQMGABsb' for reading
[hls @ 0000020dede5ea00] Skip ('#EXT-X-VERSION:3')
[hls @ 0000020dede5ea00] Skip ('#EXT-X-ALLOW-CACHE:YES')
[http @ 0000020dede78200] Opening 'http://83.149.84.164:25461/hlsr/TBEOVUNZG1xBAAZXA1JTAFVXCggFCAcGBVJRBQZRBVUEUl4FUQRcVAEVGRERRxRdV1tnWFQaCw0JGEFBQARHaF5XRA4SAg1SVgQXH0BHD1VTFAIBHBpBXFQWWRYLVg0GBRFKFlVJTQMRWVRfPVcDTl9VXRMKVkRZXBhBW10+UVJaUghQEgsbVkEbF1oRQ0QCWENUXRwaU1xERgJAVkMPFQUHUAMSHRsFDEJbRxBKRAIUYmoTHBpUTURRDUdaDlsVDRELB0UJG0pBXkZsEFYVTERTWVxVShMPEgRBGBEMVE9oUAlaXlRaEgpYW0BACUQJFBoaXF9WWEFfRjxEWgUXDRULUQMGABsb/server35/server3535/89/a16ee9a588d4a7180b9296e53d7137a4/89_2006.ts' for reading
frame= 8491 fps= 27 q=34.0 size=N/A time=00:05:39.96 bitrate=N/A dup=2 drop=0 speed=1.08x    [hls @ 0000020dee770740] Opening 'C:\xampp\htdocs\iptv\m3u/cc384c68ad503482fb24e6d1e3b512ae6.ts' for writing
[hls @ 0000020dee770740] Opening 'C:\xampp\htdocs\iptv\m3u/cc384c68ad503482fb24e6d1e3b512ae.m3u8.tmp' for writing
frame= 8520 fps= 27 q=39.0 size=N/A time=00:05:40.93 bitrate=N/A dup=2 drop=0 speed=1.08x    frame= 8562 fps= 27 q=34.0 size=N/A time=00:05:42.77 bitrate=N/A dup=2 drop=0 speed=1.08x    frame= 8601 fps= 27 q=33.0 size=N/A time=00:05:44.18 bitrate=N/A dup=2 drop=0 speed=1.09x    frame= 8638 fps= 27 q=33.0 size=N/A time=00:05:45.65 bitrate=N/A dup=2 drop=0 speed=1.09x    frame= 8684 fps= 27 q=33.0 size=N/A time=00:05:47.50 bitrate=N/A dup=2 drop=0 speed=1.09x    frame= 8708 fps= 27 q=33.0 size=N/A time=00:05:48.57 bitrate=N/A dup=2 drop=0 speed= 1.1x    